%TF.GenerationSoftware,KiCad,Pcbnew,8.0.0*%
%TF.CreationDate,2024-03-04T10:49:59+07:00*%
%TF.ProjectId,capstone,63617073-746f-46e6-952e-6b696361645f,rev?*%
%TF.SameCoordinates,Original*%
%TF.FileFunction,Soldermask,Bot*%
%TF.FilePolarity,Negative*%
%FSLAX46Y46*%
G04 Gerber Fmt 4.6, Leading zero omitted, Abs format (unit mm)*
G04 Created by KiCad (PCBNEW 8.0.0) date 2024-03-04 10:49:59*
%MOMM*%
%LPD*%
G01*
G04 APERTURE LIST*
G04 Aperture macros list*
%AMRoundRect*
0 Rectangle with rounded corners*
0 $1 Rounding radius*
0 $2 $3 $4 $5 $6 $7 $8 $9 X,Y pos of 4 corners*
0 Add a 4 corners polygon primitive as box body*
4,1,4,$2,$3,$4,$5,$6,$7,$8,$9,$2,$3,0*
0 Add four circle primitives for the rounded corners*
1,1,$1+$1,$2,$3*
1,1,$1+$1,$4,$5*
1,1,$1+$1,$6,$7*
1,1,$1+$1,$8,$9*
0 Add four rect primitives between the rounded corners*
20,1,$1+$1,$2,$3,$4,$5,0*
20,1,$1+$1,$4,$5,$6,$7,0*
20,1,$1+$1,$6,$7,$8,$9,0*
20,1,$1+$1,$8,$9,$2,$3,0*%
G04 Aperture macros list end*
%ADD10RoundRect,0.250000X-0.625000X0.350000X-0.625000X-0.350000X0.625000X-0.350000X0.625000X0.350000X0*%
%ADD11O,1.750000X1.200000*%
%ADD12O,5.204000X2.704000*%
%ADD13O,4.704000X2.454000*%
%ADD14O,2.454000X4.704000*%
%ADD15RoundRect,0.250000X0.350000X0.625000X-0.350000X0.625000X-0.350000X-0.625000X0.350000X-0.625000X0*%
%ADD16O,1.200000X1.750000*%
%ADD17C,3.800000*%
%ADD18R,1.600000X1.600000*%
%ADD19C,1.600000*%
%ADD20RoundRect,0.250000X-0.350000X-0.625000X0.350000X-0.625000X0.350000X0.625000X-0.350000X0.625000X0*%
%ADD21R,2.000000X1.905000*%
%ADD22O,2.000000X1.905000*%
%ADD23C,3.200000*%
%ADD24O,1.727200X1.727200*%
%ADD25R,1.727200X1.727200*%
%ADD26R,2.200000X2.200000*%
%ADD27O,2.200000X2.200000*%
%ADD28R,1.700000X1.700000*%
%ADD29O,1.700000X1.700000*%
%ADD30O,1.600000X1.600000*%
%ADD31RoundRect,0.250000X0.625000X-0.350000X0.625000X0.350000X-0.625000X0.350000X-0.625000X-0.350000X0*%
G04 APERTURE END LIST*
D10*
%TO.C,J2*%
X99900000Y-59830000D03*
D11*
X99900000Y-61830000D03*
%TD*%
D12*
%TO.C,J11*%
X155500000Y-129000000D03*
D13*
X155500000Y-135000000D03*
D14*
X160200000Y-132000000D03*
%TD*%
D15*
%TO.C,W_LV_SENSOR*%
X164500000Y-45950000D03*
D16*
X162500000Y-45950000D03*
X160500000Y-45950000D03*
X158500000Y-45950000D03*
%TD*%
D17*
%TO.C,H2*%
X231500000Y-140500000D03*
%TD*%
%TO.C,H5*%
X95450000Y-140500000D03*
%TD*%
D18*
%TO.C,C5*%
X188500000Y-56500000D03*
D19*
X191000000Y-56500000D03*
%TD*%
D20*
%TO.C,STP_MTR*%
X206110000Y-136050000D03*
D16*
X208110000Y-136050000D03*
X210110000Y-136050000D03*
X212110000Y-136050000D03*
%TD*%
D21*
%TO.C,Q2*%
X121000000Y-77870000D03*
D22*
X121000000Y-75330000D03*
X121000000Y-72790000D03*
%TD*%
D23*
%TO.C,A1*%
X133370000Y-68689881D03*
X181630000Y-69959881D03*
X166390000Y-120759881D03*
X138450000Y-120759881D03*
D24*
X133370000Y-90279881D03*
X133370000Y-92819881D03*
X133370000Y-105519881D03*
X133370000Y-108059881D03*
X133370000Y-110599881D03*
X133370000Y-113139881D03*
X133370000Y-115679881D03*
X133370000Y-118219881D03*
X181630000Y-78595881D03*
X133370000Y-82659881D03*
X181630000Y-118219881D03*
X181630000Y-115679881D03*
X181630000Y-113139881D03*
X181630000Y-110599881D03*
X181630000Y-108059881D03*
X181630000Y-105519881D03*
X181630000Y-102979881D03*
X181630000Y-100439881D03*
X181630000Y-96375881D03*
X181630000Y-93835881D03*
X181630000Y-91295881D03*
X181630000Y-88755881D03*
X181630000Y-86215881D03*
X181630000Y-83675881D03*
D25*
X181630000Y-81135881D03*
X133370000Y-95359881D03*
X133370000Y-97899881D03*
X133370000Y-75039881D03*
D24*
X133370000Y-85199881D03*
X133370000Y-72499881D03*
X133370000Y-87739881D03*
X181630000Y-73515881D03*
X181630000Y-76055881D03*
X133370000Y-77579881D03*
X133370000Y-100439881D03*
%TD*%
D18*
%TO.C,C4*%
X202542380Y-126850000D03*
D19*
X200042380Y-126850000D03*
%TD*%
D26*
%TO.C,D2*%
X112500000Y-70500000D03*
D27*
X112500000Y-80660000D03*
%TD*%
D15*
%TO.C,DHT-11*%
X222000000Y-45950000D03*
D16*
X220000000Y-45950000D03*
X218000000Y-45950000D03*
%TD*%
D15*
%TO.C,ULT_SENSOR*%
X208000000Y-45950000D03*
D16*
X206000000Y-45950000D03*
X204000000Y-45950000D03*
X202000000Y-45950000D03*
%TD*%
D28*
%TO.C,J10*%
X157750000Y-68500000D03*
D29*
X160290000Y-68500000D03*
X162830000Y-68500000D03*
X165370000Y-68500000D03*
%TD*%
D26*
%TO.C,D1*%
X112500000Y-56420000D03*
D27*
X112500000Y-66580000D03*
%TD*%
D17*
%TO.C,H1*%
X231500000Y-41500000D03*
%TD*%
D18*
%TO.C,A2*%
X200110000Y-119340000D03*
D30*
X202650000Y-119340000D03*
X205190000Y-119340000D03*
X207730000Y-119340000D03*
X210270000Y-119340000D03*
X212810000Y-119340000D03*
X215350000Y-119340000D03*
X217890000Y-119340000D03*
X217890000Y-106640000D03*
X215350000Y-106640000D03*
X212810000Y-106640000D03*
X210270000Y-106640000D03*
X207730000Y-106640000D03*
X205190000Y-106640000D03*
X202650000Y-106640000D03*
X200110000Y-106640000D03*
%TD*%
D31*
%TO.C,WTR_PMP*%
X227050000Y-58000000D03*
D11*
X227050000Y-56000000D03*
X227050000Y-54000000D03*
%TD*%
D15*
%TO.C,SERVO_PWM*%
X192000000Y-45950000D03*
D16*
X190000000Y-45950000D03*
X188000000Y-45950000D03*
%TD*%
D17*
%TO.C,H3*%
X95450000Y-41500000D03*
%TD*%
D21*
%TO.C,Q1*%
X121000000Y-62870000D03*
D22*
X121000000Y-60330000D03*
X121000000Y-57790000D03*
%TD*%
D18*
%TO.C,C3*%
X217974759Y-126849999D03*
D19*
X215474759Y-126849999D03*
%TD*%
D10*
%TO.C,J3*%
X99950000Y-74580000D03*
D11*
X99950000Y-76580000D03*
%TD*%
M02*
