%TF.GenerationSoftware,KiCad,Pcbnew,8.0.0*%
%TF.CreationDate,2024-03-04T10:49:59+07:00*%
%TF.ProjectId,capstone,63617073-746f-46e6-952e-6b696361645f,rev?*%
%TF.SameCoordinates,Original*%
%TF.FileFunction,Legend,Bot*%
%TF.FilePolarity,Positive*%
%FSLAX46Y46*%
G04 Gerber Fmt 4.6, Leading zero omitted, Abs format (unit mm)*
G04 Created by KiCad (PCBNEW 8.0.0) date 2024-03-04 10:49:59*
%MOMM*%
%LPD*%
G01*
G04 APERTURE LIST*
%ADD10C,0.300000*%
%ADD11C,0.150000*%
G04 APERTURE END LIST*
D10*
X123516917Y-139800828D02*
X123516917Y-140872257D01*
X123516917Y-140872257D02*
X123588346Y-141086542D01*
X123588346Y-141086542D02*
X123731203Y-141229400D01*
X123731203Y-141229400D02*
X123945489Y-141300828D01*
X123945489Y-141300828D02*
X124088346Y-141300828D01*
X122088346Y-141300828D02*
X122802632Y-141300828D01*
X122802632Y-141300828D02*
X122802632Y-139800828D01*
X120731203Y-141157971D02*
X120802631Y-141229400D01*
X120802631Y-141229400D02*
X121016917Y-141300828D01*
X121016917Y-141300828D02*
X121159774Y-141300828D01*
X121159774Y-141300828D02*
X121374060Y-141229400D01*
X121374060Y-141229400D02*
X121516917Y-141086542D01*
X121516917Y-141086542D02*
X121588346Y-140943685D01*
X121588346Y-140943685D02*
X121659774Y-140657971D01*
X121659774Y-140657971D02*
X121659774Y-140443685D01*
X121659774Y-140443685D02*
X121588346Y-140157971D01*
X121588346Y-140157971D02*
X121516917Y-140015114D01*
X121516917Y-140015114D02*
X121374060Y-139872257D01*
X121374060Y-139872257D02*
X121159774Y-139800828D01*
X121159774Y-139800828D02*
X121016917Y-139800828D01*
X121016917Y-139800828D02*
X120802631Y-139872257D01*
X120802631Y-139872257D02*
X120731203Y-139943685D01*
X119659774Y-139800828D02*
X119659774Y-140872257D01*
X119659774Y-140872257D02*
X119731203Y-141086542D01*
X119731203Y-141086542D02*
X119874060Y-141229400D01*
X119874060Y-141229400D02*
X120088346Y-141300828D01*
X120088346Y-141300828D02*
X120231203Y-141300828D01*
X118231203Y-141300828D02*
X118945489Y-141300828D01*
X118945489Y-141300828D02*
X118945489Y-139800828D01*
X116874060Y-141157971D02*
X116945488Y-141229400D01*
X116945488Y-141229400D02*
X117159774Y-141300828D01*
X117159774Y-141300828D02*
X117302631Y-141300828D01*
X117302631Y-141300828D02*
X117516917Y-141229400D01*
X117516917Y-141229400D02*
X117659774Y-141086542D01*
X117659774Y-141086542D02*
X117731203Y-140943685D01*
X117731203Y-140943685D02*
X117802631Y-140657971D01*
X117802631Y-140657971D02*
X117802631Y-140443685D01*
X117802631Y-140443685D02*
X117731203Y-140157971D01*
X117731203Y-140157971D02*
X117659774Y-140015114D01*
X117659774Y-140015114D02*
X117516917Y-139872257D01*
X117516917Y-139872257D02*
X117302631Y-139800828D01*
X117302631Y-139800828D02*
X117159774Y-139800828D01*
X117159774Y-139800828D02*
X116945488Y-139872257D01*
X116945488Y-139872257D02*
X116874060Y-139943685D01*
X115802631Y-139800828D02*
X115802631Y-140872257D01*
X115802631Y-140872257D02*
X115874060Y-141086542D01*
X115874060Y-141086542D02*
X116016917Y-141229400D01*
X116016917Y-141229400D02*
X116231203Y-141300828D01*
X116231203Y-141300828D02*
X116374060Y-141300828D01*
X114374060Y-141300828D02*
X115088346Y-141300828D01*
X115088346Y-141300828D02*
X115088346Y-139800828D01*
X113016917Y-141157971D02*
X113088345Y-141229400D01*
X113088345Y-141229400D02*
X113302631Y-141300828D01*
X113302631Y-141300828D02*
X113445488Y-141300828D01*
X113445488Y-141300828D02*
X113659774Y-141229400D01*
X113659774Y-141229400D02*
X113802631Y-141086542D01*
X113802631Y-141086542D02*
X113874060Y-140943685D01*
X113874060Y-140943685D02*
X113945488Y-140657971D01*
X113945488Y-140657971D02*
X113945488Y-140443685D01*
X113945488Y-140443685D02*
X113874060Y-140157971D01*
X113874060Y-140157971D02*
X113802631Y-140015114D01*
X113802631Y-140015114D02*
X113659774Y-139872257D01*
X113659774Y-139872257D02*
X113445488Y-139800828D01*
X113445488Y-139800828D02*
X113302631Y-139800828D01*
X113302631Y-139800828D02*
X113088345Y-139872257D01*
X113088345Y-139872257D02*
X113016917Y-139943685D01*
X111945488Y-139800828D02*
X111945488Y-140872257D01*
X111945488Y-140872257D02*
X112016917Y-141086542D01*
X112016917Y-141086542D02*
X112159774Y-141229400D01*
X112159774Y-141229400D02*
X112374060Y-141300828D01*
X112374060Y-141300828D02*
X112516917Y-141300828D01*
X110516917Y-141300828D02*
X111231203Y-141300828D01*
X111231203Y-141300828D02*
X111231203Y-139800828D01*
X109159774Y-141157971D02*
X109231202Y-141229400D01*
X109231202Y-141229400D02*
X109445488Y-141300828D01*
X109445488Y-141300828D02*
X109588345Y-141300828D01*
X109588345Y-141300828D02*
X109802631Y-141229400D01*
X109802631Y-141229400D02*
X109945488Y-141086542D01*
X109945488Y-141086542D02*
X110016917Y-140943685D01*
X110016917Y-140943685D02*
X110088345Y-140657971D01*
X110088345Y-140657971D02*
X110088345Y-140443685D01*
X110088345Y-140443685D02*
X110016917Y-140157971D01*
X110016917Y-140157971D02*
X109945488Y-140015114D01*
X109945488Y-140015114D02*
X109802631Y-139872257D01*
X109802631Y-139872257D02*
X109588345Y-139800828D01*
X109588345Y-139800828D02*
X109445488Y-139800828D01*
X109445488Y-139800828D02*
X109231202Y-139872257D01*
X109231202Y-139872257D02*
X109159774Y-139943685D01*
D11*
X185355104Y-56545595D02*
X185355104Y-57021785D01*
X185640819Y-56450357D02*
X184640819Y-56783690D01*
X184640819Y-56783690D02*
X185640819Y-57117023D01*
X185640819Y-57974166D02*
X185640819Y-57402738D01*
X185640819Y-57688452D02*
X184640819Y-57688452D01*
X184640819Y-57688452D02*
X184783676Y-57593214D01*
X184783676Y-57593214D02*
X184878914Y-57497976D01*
X184878914Y-57497976D02*
X184926533Y-57402738D01*
X163193580Y-117203880D02*
X163241200Y-117156261D01*
X163241200Y-117156261D02*
X163288819Y-117203880D01*
X163288819Y-117203880D02*
X163241200Y-117251499D01*
X163241200Y-117251499D02*
X163193580Y-117203880D01*
X163193580Y-117203880D02*
X163288819Y-117203880D01*
X179270180Y-118957975D02*
X180270180Y-118957975D01*
X180270180Y-118957975D02*
X180270180Y-118719880D01*
X180270180Y-118719880D02*
X180222561Y-118577023D01*
X180222561Y-118577023D02*
X180127323Y-118481785D01*
X180127323Y-118481785D02*
X180032085Y-118434166D01*
X180032085Y-118434166D02*
X179841609Y-118386547D01*
X179841609Y-118386547D02*
X179698752Y-118386547D01*
X179698752Y-118386547D02*
X179508276Y-118434166D01*
X179508276Y-118434166D02*
X179413038Y-118481785D01*
X179413038Y-118481785D02*
X179317800Y-118577023D01*
X179317800Y-118577023D02*
X179270180Y-118719880D01*
X179270180Y-118719880D02*
X179270180Y-118957975D01*
X180270180Y-117767499D02*
X180270180Y-117672261D01*
X180270180Y-117672261D02*
X180222561Y-117577023D01*
X180222561Y-117577023D02*
X180174942Y-117529404D01*
X180174942Y-117529404D02*
X180079704Y-117481785D01*
X180079704Y-117481785D02*
X179889228Y-117434166D01*
X179889228Y-117434166D02*
X179651133Y-117434166D01*
X179651133Y-117434166D02*
X179460657Y-117481785D01*
X179460657Y-117481785D02*
X179365419Y-117529404D01*
X179365419Y-117529404D02*
X179317800Y-117577023D01*
X179317800Y-117577023D02*
X179270180Y-117672261D01*
X179270180Y-117672261D02*
X179270180Y-117767499D01*
X179270180Y-117767499D02*
X179317800Y-117862737D01*
X179317800Y-117862737D02*
X179365419Y-117910356D01*
X179365419Y-117910356D02*
X179460657Y-117957975D01*
X179460657Y-117957975D02*
X179651133Y-118005594D01*
X179651133Y-118005594D02*
X179889228Y-118005594D01*
X179889228Y-118005594D02*
X180079704Y-117957975D01*
X180079704Y-117957975D02*
X180174942Y-117910356D01*
X180174942Y-117910356D02*
X180222561Y-117862737D01*
X180222561Y-117862737D02*
X180270180Y-117767499D01*
%TO.C,A1*%
X130830000Y-54719881D02*
X130830000Y-120759881D01*
X130830000Y-120759881D02*
X132100000Y-120759881D01*
X132100000Y-120759881D02*
X134640000Y-123299881D01*
X134640000Y-123299881D02*
X168930000Y-123299881D01*
X168930000Y-123299881D02*
X171470000Y-120759881D01*
X171470000Y-120759881D02*
X182646000Y-120759881D01*
X184170000Y-54719881D02*
X130830000Y-54719881D01*
X184170000Y-54719881D02*
X184170000Y-119235881D01*
X184170000Y-119235881D02*
X182646000Y-120759881D01*
%TD*%
M02*
