%TF.GenerationSoftware,KiCad,Pcbnew,8.0.0*%
%TF.CreationDate,2024-03-04T10:49:59+07:00*%
%TF.ProjectId,capstone,63617073-746f-46e6-952e-6b696361645f,rev?*%
%TF.SameCoordinates,Original*%
%TF.FileFunction,Legend,Top*%
%TF.FilePolarity,Positive*%
%FSLAX46Y46*%
G04 Gerber Fmt 4.6, Leading zero omitted, Abs format (unit mm)*
G04 Created by KiCad (PCBNEW 8.0.0) date 2024-03-04 10:49:59*
%MOMM*%
%LPD*%
G01*
G04 APERTURE LIST*
%ADD10C,0.100000*%
%ADD11C,0.150000*%
%ADD12C,0.110000*%
%ADD13C,0.120000*%
%ADD14C,0.127000*%
%ADD15C,0.400000*%
G04 APERTURE END LIST*
D10*
X143500000Y-81500000D02*
X168500000Y-81500000D01*
X168500000Y-121500000D01*
X143500000Y-121500000D01*
X143500000Y-81500000D01*
D11*
X156369819Y-104091792D02*
X155893628Y-104425125D01*
X156369819Y-104663220D02*
X155369819Y-104663220D01*
X155369819Y-104663220D02*
X155369819Y-104282268D01*
X155369819Y-104282268D02*
X155417438Y-104187030D01*
X155417438Y-104187030D02*
X155465057Y-104139411D01*
X155465057Y-104139411D02*
X155560295Y-104091792D01*
X155560295Y-104091792D02*
X155703152Y-104091792D01*
X155703152Y-104091792D02*
X155798390Y-104139411D01*
X155798390Y-104139411D02*
X155846009Y-104187030D01*
X155846009Y-104187030D02*
X155893628Y-104282268D01*
X155893628Y-104282268D02*
X155893628Y-104663220D01*
X155369819Y-103806077D02*
X155369819Y-103234649D01*
X156369819Y-103520363D02*
X155369819Y-103520363D01*
X156274580Y-102329887D02*
X156322200Y-102377506D01*
X156322200Y-102377506D02*
X156369819Y-102520363D01*
X156369819Y-102520363D02*
X156369819Y-102615601D01*
X156369819Y-102615601D02*
X156322200Y-102758458D01*
X156322200Y-102758458D02*
X156226961Y-102853696D01*
X156226961Y-102853696D02*
X156131723Y-102901315D01*
X156131723Y-102901315D02*
X155941247Y-102948934D01*
X155941247Y-102948934D02*
X155798390Y-102948934D01*
X155798390Y-102948934D02*
X155607914Y-102901315D01*
X155607914Y-102901315D02*
X155512676Y-102853696D01*
X155512676Y-102853696D02*
X155417438Y-102758458D01*
X155417438Y-102758458D02*
X155369819Y-102615601D01*
X155369819Y-102615601D02*
X155369819Y-102520363D01*
X155369819Y-102520363D02*
X155417438Y-102377506D01*
X155417438Y-102377506D02*
X155465057Y-102329887D01*
X156465057Y-102139411D02*
X156465057Y-101377506D01*
X156369819Y-101139410D02*
X155369819Y-101139410D01*
X155369819Y-101139410D02*
X156084104Y-100806077D01*
X156084104Y-100806077D02*
X155369819Y-100472744D01*
X155369819Y-100472744D02*
X156369819Y-100472744D01*
X155369819Y-99806077D02*
X155369819Y-99615601D01*
X155369819Y-99615601D02*
X155417438Y-99520363D01*
X155417438Y-99520363D02*
X155512676Y-99425125D01*
X155512676Y-99425125D02*
X155703152Y-99377506D01*
X155703152Y-99377506D02*
X156036485Y-99377506D01*
X156036485Y-99377506D02*
X156226961Y-99425125D01*
X156226961Y-99425125D02*
X156322200Y-99520363D01*
X156322200Y-99520363D02*
X156369819Y-99615601D01*
X156369819Y-99615601D02*
X156369819Y-99806077D01*
X156369819Y-99806077D02*
X156322200Y-99901315D01*
X156322200Y-99901315D02*
X156226961Y-99996553D01*
X156226961Y-99996553D02*
X156036485Y-100044172D01*
X156036485Y-100044172D02*
X155703152Y-100044172D01*
X155703152Y-100044172D02*
X155512676Y-99996553D01*
X155512676Y-99996553D02*
X155417438Y-99901315D01*
X155417438Y-99901315D02*
X155369819Y-99806077D01*
X156369819Y-98948934D02*
X155369819Y-98948934D01*
X155369819Y-98948934D02*
X155369819Y-98710839D01*
X155369819Y-98710839D02*
X155417438Y-98567982D01*
X155417438Y-98567982D02*
X155512676Y-98472744D01*
X155512676Y-98472744D02*
X155607914Y-98425125D01*
X155607914Y-98425125D02*
X155798390Y-98377506D01*
X155798390Y-98377506D02*
X155941247Y-98377506D01*
X155941247Y-98377506D02*
X156131723Y-98425125D01*
X156131723Y-98425125D02*
X156226961Y-98472744D01*
X156226961Y-98472744D02*
X156322200Y-98567982D01*
X156322200Y-98567982D02*
X156369819Y-98710839D01*
X156369819Y-98710839D02*
X156369819Y-98948934D01*
X155369819Y-97948934D02*
X156179342Y-97948934D01*
X156179342Y-97948934D02*
X156274580Y-97901315D01*
X156274580Y-97901315D02*
X156322200Y-97853696D01*
X156322200Y-97853696D02*
X156369819Y-97758458D01*
X156369819Y-97758458D02*
X156369819Y-97567982D01*
X156369819Y-97567982D02*
X156322200Y-97472744D01*
X156322200Y-97472744D02*
X156274580Y-97425125D01*
X156274580Y-97425125D02*
X156179342Y-97377506D01*
X156179342Y-97377506D02*
X155369819Y-97377506D01*
X156369819Y-96425125D02*
X156369819Y-96901315D01*
X156369819Y-96901315D02*
X155369819Y-96901315D01*
X155846009Y-96091791D02*
X155846009Y-95758458D01*
X156369819Y-95615601D02*
X156369819Y-96091791D01*
X156369819Y-96091791D02*
X155369819Y-96091791D01*
X155369819Y-96091791D02*
X155369819Y-95615601D01*
D10*
X103214856Y-79243734D02*
X103262475Y-79100877D01*
X103262475Y-79100877D02*
X103262475Y-78862782D01*
X103262475Y-78862782D02*
X103214856Y-78767544D01*
X103214856Y-78767544D02*
X103167236Y-78719925D01*
X103167236Y-78719925D02*
X103071998Y-78672306D01*
X103071998Y-78672306D02*
X102976760Y-78672306D01*
X102976760Y-78672306D02*
X102881522Y-78719925D01*
X102881522Y-78719925D02*
X102833903Y-78767544D01*
X102833903Y-78767544D02*
X102786284Y-78862782D01*
X102786284Y-78862782D02*
X102738665Y-79053258D01*
X102738665Y-79053258D02*
X102691046Y-79148496D01*
X102691046Y-79148496D02*
X102643427Y-79196115D01*
X102643427Y-79196115D02*
X102548189Y-79243734D01*
X102548189Y-79243734D02*
X102452951Y-79243734D01*
X102452951Y-79243734D02*
X102357713Y-79196115D01*
X102357713Y-79196115D02*
X102310094Y-79148496D01*
X102310094Y-79148496D02*
X102262475Y-79053258D01*
X102262475Y-79053258D02*
X102262475Y-78815163D01*
X102262475Y-78815163D02*
X102310094Y-78672306D01*
X102262475Y-78053258D02*
X102262475Y-77862782D01*
X102262475Y-77862782D02*
X102310094Y-77767544D01*
X102310094Y-77767544D02*
X102405332Y-77672306D01*
X102405332Y-77672306D02*
X102595808Y-77624687D01*
X102595808Y-77624687D02*
X102929141Y-77624687D01*
X102929141Y-77624687D02*
X103119617Y-77672306D01*
X103119617Y-77672306D02*
X103214856Y-77767544D01*
X103214856Y-77767544D02*
X103262475Y-77862782D01*
X103262475Y-77862782D02*
X103262475Y-78053258D01*
X103262475Y-78053258D02*
X103214856Y-78148496D01*
X103214856Y-78148496D02*
X103119617Y-78243734D01*
X103119617Y-78243734D02*
X102929141Y-78291353D01*
X102929141Y-78291353D02*
X102595808Y-78291353D01*
X102595808Y-78291353D02*
X102405332Y-78243734D01*
X102405332Y-78243734D02*
X102310094Y-78148496D01*
X102310094Y-78148496D02*
X102262475Y-78053258D01*
X103262475Y-76719925D02*
X103262475Y-77196115D01*
X103262475Y-77196115D02*
X102262475Y-77196115D01*
X103357713Y-76624687D02*
X103357713Y-75862782D01*
X103167236Y-75053258D02*
X103214856Y-75100877D01*
X103214856Y-75100877D02*
X103262475Y-75243734D01*
X103262475Y-75243734D02*
X103262475Y-75338972D01*
X103262475Y-75338972D02*
X103214856Y-75481829D01*
X103214856Y-75481829D02*
X103119617Y-75577067D01*
X103119617Y-75577067D02*
X103024379Y-75624686D01*
X103024379Y-75624686D02*
X102833903Y-75672305D01*
X102833903Y-75672305D02*
X102691046Y-75672305D01*
X102691046Y-75672305D02*
X102500570Y-75624686D01*
X102500570Y-75624686D02*
X102405332Y-75577067D01*
X102405332Y-75577067D02*
X102310094Y-75481829D01*
X102310094Y-75481829D02*
X102262475Y-75338972D01*
X102262475Y-75338972D02*
X102262475Y-75243734D01*
X102262475Y-75243734D02*
X102310094Y-75100877D01*
X102310094Y-75100877D02*
X102357713Y-75053258D01*
X102262475Y-74767543D02*
X102262475Y-74196115D01*
X103262475Y-74481829D02*
X102262475Y-74481829D01*
X103262475Y-73291353D02*
X102786284Y-73624686D01*
X103262475Y-73862781D02*
X102262475Y-73862781D01*
X102262475Y-73862781D02*
X102262475Y-73481829D01*
X102262475Y-73481829D02*
X102310094Y-73386591D01*
X102310094Y-73386591D02*
X102357713Y-73338972D01*
X102357713Y-73338972D02*
X102452951Y-73291353D01*
X102452951Y-73291353D02*
X102595808Y-73291353D01*
X102595808Y-73291353D02*
X102691046Y-73338972D01*
X102691046Y-73338972D02*
X102738665Y-73386591D01*
X102738665Y-73386591D02*
X102786284Y-73481829D01*
X102786284Y-73481829D02*
X102786284Y-73862781D01*
X103262475Y-72386591D02*
X103262475Y-72862781D01*
X103262475Y-72862781D02*
X102262475Y-72862781D01*
X103262475Y-71529448D02*
X103262475Y-72100876D01*
X103262475Y-71815162D02*
X102262475Y-71815162D01*
X102262475Y-71815162D02*
X102405332Y-71910400D01*
X102405332Y-71910400D02*
X102500570Y-72005638D01*
X102500570Y-72005638D02*
X102548189Y-72100876D01*
X103224800Y-64743734D02*
X103272419Y-64600877D01*
X103272419Y-64600877D02*
X103272419Y-64362782D01*
X103272419Y-64362782D02*
X103224800Y-64267544D01*
X103224800Y-64267544D02*
X103177180Y-64219925D01*
X103177180Y-64219925D02*
X103081942Y-64172306D01*
X103081942Y-64172306D02*
X102986704Y-64172306D01*
X102986704Y-64172306D02*
X102891466Y-64219925D01*
X102891466Y-64219925D02*
X102843847Y-64267544D01*
X102843847Y-64267544D02*
X102796228Y-64362782D01*
X102796228Y-64362782D02*
X102748609Y-64553258D01*
X102748609Y-64553258D02*
X102700990Y-64648496D01*
X102700990Y-64648496D02*
X102653371Y-64696115D01*
X102653371Y-64696115D02*
X102558133Y-64743734D01*
X102558133Y-64743734D02*
X102462895Y-64743734D01*
X102462895Y-64743734D02*
X102367657Y-64696115D01*
X102367657Y-64696115D02*
X102320038Y-64648496D01*
X102320038Y-64648496D02*
X102272419Y-64553258D01*
X102272419Y-64553258D02*
X102272419Y-64315163D01*
X102272419Y-64315163D02*
X102320038Y-64172306D01*
X102272419Y-63553258D02*
X102272419Y-63362782D01*
X102272419Y-63362782D02*
X102320038Y-63267544D01*
X102320038Y-63267544D02*
X102415276Y-63172306D01*
X102415276Y-63172306D02*
X102605752Y-63124687D01*
X102605752Y-63124687D02*
X102939085Y-63124687D01*
X102939085Y-63124687D02*
X103129561Y-63172306D01*
X103129561Y-63172306D02*
X103224800Y-63267544D01*
X103224800Y-63267544D02*
X103272419Y-63362782D01*
X103272419Y-63362782D02*
X103272419Y-63553258D01*
X103272419Y-63553258D02*
X103224800Y-63648496D01*
X103224800Y-63648496D02*
X103129561Y-63743734D01*
X103129561Y-63743734D02*
X102939085Y-63791353D01*
X102939085Y-63791353D02*
X102605752Y-63791353D01*
X102605752Y-63791353D02*
X102415276Y-63743734D01*
X102415276Y-63743734D02*
X102320038Y-63648496D01*
X102320038Y-63648496D02*
X102272419Y-63553258D01*
X103272419Y-62219925D02*
X103272419Y-62696115D01*
X103272419Y-62696115D02*
X102272419Y-62696115D01*
X103367657Y-62124687D02*
X103367657Y-61362782D01*
X103177180Y-60553258D02*
X103224800Y-60600877D01*
X103224800Y-60600877D02*
X103272419Y-60743734D01*
X103272419Y-60743734D02*
X103272419Y-60838972D01*
X103272419Y-60838972D02*
X103224800Y-60981829D01*
X103224800Y-60981829D02*
X103129561Y-61077067D01*
X103129561Y-61077067D02*
X103034323Y-61124686D01*
X103034323Y-61124686D02*
X102843847Y-61172305D01*
X102843847Y-61172305D02*
X102700990Y-61172305D01*
X102700990Y-61172305D02*
X102510514Y-61124686D01*
X102510514Y-61124686D02*
X102415276Y-61077067D01*
X102415276Y-61077067D02*
X102320038Y-60981829D01*
X102320038Y-60981829D02*
X102272419Y-60838972D01*
X102272419Y-60838972D02*
X102272419Y-60743734D01*
X102272419Y-60743734D02*
X102320038Y-60600877D01*
X102320038Y-60600877D02*
X102367657Y-60553258D01*
X102272419Y-60267543D02*
X102272419Y-59696115D01*
X103272419Y-59981829D02*
X102272419Y-59981829D01*
X103272419Y-58791353D02*
X102796228Y-59124686D01*
X103272419Y-59362781D02*
X102272419Y-59362781D01*
X102272419Y-59362781D02*
X102272419Y-58981829D01*
X102272419Y-58981829D02*
X102320038Y-58886591D01*
X102320038Y-58886591D02*
X102367657Y-58838972D01*
X102367657Y-58838972D02*
X102462895Y-58791353D01*
X102462895Y-58791353D02*
X102605752Y-58791353D01*
X102605752Y-58791353D02*
X102700990Y-58838972D01*
X102700990Y-58838972D02*
X102748609Y-58886591D01*
X102748609Y-58886591D02*
X102796228Y-58981829D01*
X102796228Y-58981829D02*
X102796228Y-59362781D01*
X103272419Y-57886591D02*
X103272419Y-58362781D01*
X103272419Y-58362781D02*
X102272419Y-58362781D01*
X102367657Y-57600876D02*
X102320038Y-57553257D01*
X102320038Y-57553257D02*
X102272419Y-57458019D01*
X102272419Y-57458019D02*
X102272419Y-57219924D01*
X102272419Y-57219924D02*
X102320038Y-57124686D01*
X102320038Y-57124686D02*
X102367657Y-57077067D01*
X102367657Y-57077067D02*
X102462895Y-57029448D01*
X102462895Y-57029448D02*
X102558133Y-57029448D01*
X102558133Y-57029448D02*
X102700990Y-57077067D01*
X102700990Y-57077067D02*
X103272419Y-57648495D01*
X103272419Y-57648495D02*
X103272419Y-57029448D01*
D11*
X178604819Y-75366666D02*
X178128628Y-75699999D01*
X178604819Y-75938094D02*
X177604819Y-75938094D01*
X177604819Y-75938094D02*
X177604819Y-75557142D01*
X177604819Y-75557142D02*
X177652438Y-75461904D01*
X177652438Y-75461904D02*
X177700057Y-75414285D01*
X177700057Y-75414285D02*
X177795295Y-75366666D01*
X177795295Y-75366666D02*
X177938152Y-75366666D01*
X177938152Y-75366666D02*
X178033390Y-75414285D01*
X178033390Y-75414285D02*
X178081009Y-75461904D01*
X178081009Y-75461904D02*
X178128628Y-75557142D01*
X178128628Y-75557142D02*
X178128628Y-75938094D01*
X177604819Y-75033332D02*
X177604819Y-74414285D01*
X177604819Y-74414285D02*
X177985771Y-74747618D01*
X177985771Y-74747618D02*
X177985771Y-74604761D01*
X177985771Y-74604761D02*
X178033390Y-74509523D01*
X178033390Y-74509523D02*
X178081009Y-74461904D01*
X178081009Y-74461904D02*
X178176247Y-74414285D01*
X178176247Y-74414285D02*
X178414342Y-74414285D01*
X178414342Y-74414285D02*
X178509580Y-74461904D01*
X178509580Y-74461904D02*
X178557200Y-74509523D01*
X178557200Y-74509523D02*
X178604819Y-74604761D01*
X178604819Y-74604761D02*
X178604819Y-74890475D01*
X178604819Y-74890475D02*
X178557200Y-74985713D01*
X178557200Y-74985713D02*
X178509580Y-75033332D01*
X161724990Y-132297245D02*
X162439866Y-132297245D01*
X162439866Y-132297245D02*
X162582842Y-132344903D01*
X162582842Y-132344903D02*
X162678159Y-132440220D01*
X162678159Y-132440220D02*
X162725817Y-132583195D01*
X162725817Y-132583195D02*
X162725817Y-132678512D01*
X162725817Y-131296418D02*
X162725817Y-131868319D01*
X162725817Y-131582368D02*
X161724990Y-131582368D01*
X161724990Y-131582368D02*
X161867965Y-131677685D01*
X161867965Y-131677685D02*
X161963282Y-131773002D01*
X161963282Y-131773002D02*
X162010941Y-131868319D01*
X162725817Y-130343249D02*
X162725817Y-130915150D01*
X162725817Y-130629199D02*
X161724990Y-130629199D01*
X161724990Y-130629199D02*
X161867965Y-130724516D01*
X161867965Y-130724516D02*
X161963282Y-130819833D01*
X161963282Y-130819833D02*
X162010941Y-130915150D01*
D10*
X156523809Y-48457419D02*
X156761904Y-49457419D01*
X156761904Y-49457419D02*
X156952380Y-48743133D01*
X156952380Y-48743133D02*
X157142856Y-49457419D01*
X157142856Y-49457419D02*
X157380952Y-48457419D01*
X157523809Y-49552657D02*
X158285713Y-49552657D01*
X158999999Y-49457419D02*
X158523809Y-49457419D01*
X158523809Y-49457419D02*
X158523809Y-48457419D01*
X159190476Y-48457419D02*
X159523809Y-49457419D01*
X159523809Y-49457419D02*
X159857142Y-48457419D01*
X159952381Y-49552657D02*
X160714285Y-49552657D01*
X160904762Y-49409800D02*
X161047619Y-49457419D01*
X161047619Y-49457419D02*
X161285714Y-49457419D01*
X161285714Y-49457419D02*
X161380952Y-49409800D01*
X161380952Y-49409800D02*
X161428571Y-49362180D01*
X161428571Y-49362180D02*
X161476190Y-49266942D01*
X161476190Y-49266942D02*
X161476190Y-49171704D01*
X161476190Y-49171704D02*
X161428571Y-49076466D01*
X161428571Y-49076466D02*
X161380952Y-49028847D01*
X161380952Y-49028847D02*
X161285714Y-48981228D01*
X161285714Y-48981228D02*
X161095238Y-48933609D01*
X161095238Y-48933609D02*
X161000000Y-48885990D01*
X161000000Y-48885990D02*
X160952381Y-48838371D01*
X160952381Y-48838371D02*
X160904762Y-48743133D01*
X160904762Y-48743133D02*
X160904762Y-48647895D01*
X160904762Y-48647895D02*
X160952381Y-48552657D01*
X160952381Y-48552657D02*
X161000000Y-48505038D01*
X161000000Y-48505038D02*
X161095238Y-48457419D01*
X161095238Y-48457419D02*
X161333333Y-48457419D01*
X161333333Y-48457419D02*
X161476190Y-48505038D01*
X161904762Y-48933609D02*
X162238095Y-48933609D01*
X162380952Y-49457419D02*
X161904762Y-49457419D01*
X161904762Y-49457419D02*
X161904762Y-48457419D01*
X161904762Y-48457419D02*
X162380952Y-48457419D01*
X162809524Y-49457419D02*
X162809524Y-48457419D01*
X162809524Y-48457419D02*
X163380952Y-49457419D01*
X163380952Y-49457419D02*
X163380952Y-48457419D01*
X163809524Y-49409800D02*
X163952381Y-49457419D01*
X163952381Y-49457419D02*
X164190476Y-49457419D01*
X164190476Y-49457419D02*
X164285714Y-49409800D01*
X164285714Y-49409800D02*
X164333333Y-49362180D01*
X164333333Y-49362180D02*
X164380952Y-49266942D01*
X164380952Y-49266942D02*
X164380952Y-49171704D01*
X164380952Y-49171704D02*
X164333333Y-49076466D01*
X164333333Y-49076466D02*
X164285714Y-49028847D01*
X164285714Y-49028847D02*
X164190476Y-48981228D01*
X164190476Y-48981228D02*
X164000000Y-48933609D01*
X164000000Y-48933609D02*
X163904762Y-48885990D01*
X163904762Y-48885990D02*
X163857143Y-48838371D01*
X163857143Y-48838371D02*
X163809524Y-48743133D01*
X163809524Y-48743133D02*
X163809524Y-48647895D01*
X163809524Y-48647895D02*
X163857143Y-48552657D01*
X163857143Y-48552657D02*
X163904762Y-48505038D01*
X163904762Y-48505038D02*
X164000000Y-48457419D01*
X164000000Y-48457419D02*
X164238095Y-48457419D01*
X164238095Y-48457419D02*
X164380952Y-48505038D01*
X165000000Y-48457419D02*
X165190476Y-48457419D01*
X165190476Y-48457419D02*
X165285714Y-48505038D01*
X165285714Y-48505038D02*
X165380952Y-48600276D01*
X165380952Y-48600276D02*
X165428571Y-48790752D01*
X165428571Y-48790752D02*
X165428571Y-49124085D01*
X165428571Y-49124085D02*
X165380952Y-49314561D01*
X165380952Y-49314561D02*
X165285714Y-49409800D01*
X165285714Y-49409800D02*
X165190476Y-49457419D01*
X165190476Y-49457419D02*
X165000000Y-49457419D01*
X165000000Y-49457419D02*
X164904762Y-49409800D01*
X164904762Y-49409800D02*
X164809524Y-49314561D01*
X164809524Y-49314561D02*
X164761905Y-49124085D01*
X164761905Y-49124085D02*
X164761905Y-48790752D01*
X164761905Y-48790752D02*
X164809524Y-48600276D01*
X164809524Y-48600276D02*
X164904762Y-48505038D01*
X164904762Y-48505038D02*
X165000000Y-48457419D01*
X166428571Y-49457419D02*
X166095238Y-48981228D01*
X165857143Y-49457419D02*
X165857143Y-48457419D01*
X165857143Y-48457419D02*
X166238095Y-48457419D01*
X166238095Y-48457419D02*
X166333333Y-48505038D01*
X166333333Y-48505038D02*
X166380952Y-48552657D01*
X166380952Y-48552657D02*
X166428571Y-48647895D01*
X166428571Y-48647895D02*
X166428571Y-48790752D01*
X166428571Y-48790752D02*
X166380952Y-48885990D01*
X166380952Y-48885990D02*
X166333333Y-48933609D01*
X166333333Y-48933609D02*
X166238095Y-48981228D01*
X166238095Y-48981228D02*
X165857143Y-48981228D01*
D11*
X189583333Y-52459580D02*
X189535714Y-52507200D01*
X189535714Y-52507200D02*
X189392857Y-52554819D01*
X189392857Y-52554819D02*
X189297619Y-52554819D01*
X189297619Y-52554819D02*
X189154762Y-52507200D01*
X189154762Y-52507200D02*
X189059524Y-52411961D01*
X189059524Y-52411961D02*
X189011905Y-52316723D01*
X189011905Y-52316723D02*
X188964286Y-52126247D01*
X188964286Y-52126247D02*
X188964286Y-51983390D01*
X188964286Y-51983390D02*
X189011905Y-51792914D01*
X189011905Y-51792914D02*
X189059524Y-51697676D01*
X189059524Y-51697676D02*
X189154762Y-51602438D01*
X189154762Y-51602438D02*
X189297619Y-51554819D01*
X189297619Y-51554819D02*
X189392857Y-51554819D01*
X189392857Y-51554819D02*
X189535714Y-51602438D01*
X189535714Y-51602438D02*
X189583333Y-51650057D01*
X190488095Y-51554819D02*
X190011905Y-51554819D01*
X190011905Y-51554819D02*
X189964286Y-52031009D01*
X189964286Y-52031009D02*
X190011905Y-51983390D01*
X190011905Y-51983390D02*
X190107143Y-51935771D01*
X190107143Y-51935771D02*
X190345238Y-51935771D01*
X190345238Y-51935771D02*
X190440476Y-51983390D01*
X190440476Y-51983390D02*
X190488095Y-52031009D01*
X190488095Y-52031009D02*
X190535714Y-52126247D01*
X190535714Y-52126247D02*
X190535714Y-52364342D01*
X190535714Y-52364342D02*
X190488095Y-52459580D01*
X190488095Y-52459580D02*
X190440476Y-52507200D01*
X190440476Y-52507200D02*
X190345238Y-52554819D01*
X190345238Y-52554819D02*
X190107143Y-52554819D01*
X190107143Y-52554819D02*
X190011905Y-52507200D01*
X190011905Y-52507200D02*
X189964286Y-52459580D01*
D10*
X206110000Y-133409800D02*
X206252857Y-133457419D01*
X206252857Y-133457419D02*
X206490952Y-133457419D01*
X206490952Y-133457419D02*
X206586190Y-133409800D01*
X206586190Y-133409800D02*
X206633809Y-133362180D01*
X206633809Y-133362180D02*
X206681428Y-133266942D01*
X206681428Y-133266942D02*
X206681428Y-133171704D01*
X206681428Y-133171704D02*
X206633809Y-133076466D01*
X206633809Y-133076466D02*
X206586190Y-133028847D01*
X206586190Y-133028847D02*
X206490952Y-132981228D01*
X206490952Y-132981228D02*
X206300476Y-132933609D01*
X206300476Y-132933609D02*
X206205238Y-132885990D01*
X206205238Y-132885990D02*
X206157619Y-132838371D01*
X206157619Y-132838371D02*
X206110000Y-132743133D01*
X206110000Y-132743133D02*
X206110000Y-132647895D01*
X206110000Y-132647895D02*
X206157619Y-132552657D01*
X206157619Y-132552657D02*
X206205238Y-132505038D01*
X206205238Y-132505038D02*
X206300476Y-132457419D01*
X206300476Y-132457419D02*
X206538571Y-132457419D01*
X206538571Y-132457419D02*
X206681428Y-132505038D01*
X206967143Y-132457419D02*
X207538571Y-132457419D01*
X207252857Y-133457419D02*
X207252857Y-132457419D01*
X207871905Y-133457419D02*
X207871905Y-132457419D01*
X207871905Y-132457419D02*
X208252857Y-132457419D01*
X208252857Y-132457419D02*
X208348095Y-132505038D01*
X208348095Y-132505038D02*
X208395714Y-132552657D01*
X208395714Y-132552657D02*
X208443333Y-132647895D01*
X208443333Y-132647895D02*
X208443333Y-132790752D01*
X208443333Y-132790752D02*
X208395714Y-132885990D01*
X208395714Y-132885990D02*
X208348095Y-132933609D01*
X208348095Y-132933609D02*
X208252857Y-132981228D01*
X208252857Y-132981228D02*
X207871905Y-132981228D01*
X208633810Y-133552657D02*
X209395714Y-133552657D01*
X209633810Y-133457419D02*
X209633810Y-132457419D01*
X209633810Y-132457419D02*
X209967143Y-133171704D01*
X209967143Y-133171704D02*
X210300476Y-132457419D01*
X210300476Y-132457419D02*
X210300476Y-133457419D01*
X210633810Y-132457419D02*
X211205238Y-132457419D01*
X210919524Y-133457419D02*
X210919524Y-132457419D01*
X212110000Y-133457419D02*
X211776667Y-132981228D01*
X211538572Y-133457419D02*
X211538572Y-132457419D01*
X211538572Y-132457419D02*
X211919524Y-132457419D01*
X211919524Y-132457419D02*
X212014762Y-132505038D01*
X212014762Y-132505038D02*
X212062381Y-132552657D01*
X212062381Y-132552657D02*
X212110000Y-132647895D01*
X212110000Y-132647895D02*
X212110000Y-132790752D01*
X212110000Y-132790752D02*
X212062381Y-132885990D01*
X212062381Y-132885990D02*
X212014762Y-132933609D01*
X212014762Y-132933609D02*
X211919524Y-132981228D01*
X211919524Y-132981228D02*
X211538572Y-132981228D01*
D11*
X117280057Y-75425238D02*
X117232438Y-75520476D01*
X117232438Y-75520476D02*
X117137200Y-75615714D01*
X117137200Y-75615714D02*
X116994342Y-75758571D01*
X116994342Y-75758571D02*
X116946723Y-75853809D01*
X116946723Y-75853809D02*
X116946723Y-75949047D01*
X117184819Y-75901428D02*
X117137200Y-75996666D01*
X117137200Y-75996666D02*
X117041961Y-76091904D01*
X117041961Y-76091904D02*
X116851485Y-76139523D01*
X116851485Y-76139523D02*
X116518152Y-76139523D01*
X116518152Y-76139523D02*
X116327676Y-76091904D01*
X116327676Y-76091904D02*
X116232438Y-75996666D01*
X116232438Y-75996666D02*
X116184819Y-75901428D01*
X116184819Y-75901428D02*
X116184819Y-75710952D01*
X116184819Y-75710952D02*
X116232438Y-75615714D01*
X116232438Y-75615714D02*
X116327676Y-75520476D01*
X116327676Y-75520476D02*
X116518152Y-75472857D01*
X116518152Y-75472857D02*
X116851485Y-75472857D01*
X116851485Y-75472857D02*
X117041961Y-75520476D01*
X117041961Y-75520476D02*
X117137200Y-75615714D01*
X117137200Y-75615714D02*
X117184819Y-75710952D01*
X117184819Y-75710952D02*
X117184819Y-75901428D01*
X116280057Y-75091904D02*
X116232438Y-75044285D01*
X116232438Y-75044285D02*
X116184819Y-74949047D01*
X116184819Y-74949047D02*
X116184819Y-74710952D01*
X116184819Y-74710952D02*
X116232438Y-74615714D01*
X116232438Y-74615714D02*
X116280057Y-74568095D01*
X116280057Y-74568095D02*
X116375295Y-74520476D01*
X116375295Y-74520476D02*
X116470533Y-74520476D01*
X116470533Y-74520476D02*
X116613390Y-74568095D01*
X116613390Y-74568095D02*
X117184819Y-75139523D01*
X117184819Y-75139523D02*
X117184819Y-74520476D01*
X170504819Y-73666666D02*
X170028628Y-73999999D01*
X170504819Y-74238094D02*
X169504819Y-74238094D01*
X169504819Y-74238094D02*
X169504819Y-73857142D01*
X169504819Y-73857142D02*
X169552438Y-73761904D01*
X169552438Y-73761904D02*
X169600057Y-73714285D01*
X169600057Y-73714285D02*
X169695295Y-73666666D01*
X169695295Y-73666666D02*
X169838152Y-73666666D01*
X169838152Y-73666666D02*
X169933390Y-73714285D01*
X169933390Y-73714285D02*
X169981009Y-73761904D01*
X169981009Y-73761904D02*
X170028628Y-73857142D01*
X170028628Y-73857142D02*
X170028628Y-74238094D01*
X169838152Y-72809523D02*
X170504819Y-72809523D01*
X169457200Y-73047618D02*
X170171485Y-73285713D01*
X170171485Y-73285713D02*
X170171485Y-72666666D01*
X179270180Y-117481786D02*
X180270180Y-117481786D01*
X180270180Y-117481786D02*
X180270180Y-117719881D01*
X180270180Y-117719881D02*
X180222561Y-117862738D01*
X180222561Y-117862738D02*
X180127323Y-117957976D01*
X180127323Y-117957976D02*
X180032085Y-118005595D01*
X180032085Y-118005595D02*
X179841609Y-118053214D01*
X179841609Y-118053214D02*
X179698752Y-118053214D01*
X179698752Y-118053214D02*
X179508276Y-118005595D01*
X179508276Y-118005595D02*
X179413038Y-117957976D01*
X179413038Y-117957976D02*
X179317800Y-117862738D01*
X179317800Y-117862738D02*
X179270180Y-117719881D01*
X179270180Y-117719881D02*
X179270180Y-117481786D01*
X180270180Y-118672262D02*
X180270180Y-118767500D01*
X180270180Y-118767500D02*
X180222561Y-118862738D01*
X180222561Y-118862738D02*
X180174942Y-118910357D01*
X180174942Y-118910357D02*
X180079704Y-118957976D01*
X180079704Y-118957976D02*
X179889228Y-119005595D01*
X179889228Y-119005595D02*
X179651133Y-119005595D01*
X179651133Y-119005595D02*
X179460657Y-118957976D01*
X179460657Y-118957976D02*
X179365419Y-118910357D01*
X179365419Y-118910357D02*
X179317800Y-118862738D01*
X179317800Y-118862738D02*
X179270180Y-118767500D01*
X179270180Y-118767500D02*
X179270180Y-118672262D01*
X179270180Y-118672262D02*
X179317800Y-118577024D01*
X179317800Y-118577024D02*
X179365419Y-118529405D01*
X179365419Y-118529405D02*
X179460657Y-118481786D01*
X179460657Y-118481786D02*
X179651133Y-118434167D01*
X179651133Y-118434167D02*
X179889228Y-118434167D01*
X179889228Y-118434167D02*
X180079704Y-118481786D01*
X180079704Y-118481786D02*
X180174942Y-118529405D01*
X180174942Y-118529405D02*
X180222561Y-118577024D01*
X180222561Y-118577024D02*
X180270180Y-118672262D01*
X163193580Y-117203880D02*
X163241200Y-117156261D01*
X163241200Y-117156261D02*
X163288819Y-117203880D01*
X163288819Y-117203880D02*
X163241200Y-117251499D01*
X163241200Y-117251499D02*
X163193580Y-117203880D01*
X163193580Y-117203880D02*
X163288819Y-117203880D01*
X201125713Y-131609580D02*
X201078094Y-131657200D01*
X201078094Y-131657200D02*
X200935237Y-131704819D01*
X200935237Y-131704819D02*
X200839999Y-131704819D01*
X200839999Y-131704819D02*
X200697142Y-131657200D01*
X200697142Y-131657200D02*
X200601904Y-131561961D01*
X200601904Y-131561961D02*
X200554285Y-131466723D01*
X200554285Y-131466723D02*
X200506666Y-131276247D01*
X200506666Y-131276247D02*
X200506666Y-131133390D01*
X200506666Y-131133390D02*
X200554285Y-130942914D01*
X200554285Y-130942914D02*
X200601904Y-130847676D01*
X200601904Y-130847676D02*
X200697142Y-130752438D01*
X200697142Y-130752438D02*
X200839999Y-130704819D01*
X200839999Y-130704819D02*
X200935237Y-130704819D01*
X200935237Y-130704819D02*
X201078094Y-130752438D01*
X201078094Y-130752438D02*
X201125713Y-130800057D01*
X201982856Y-131038152D02*
X201982856Y-131704819D01*
X201744761Y-130657200D02*
X201506666Y-131371485D01*
X201506666Y-131371485D02*
X202125713Y-131371485D01*
X115424819Y-76318094D02*
X114424819Y-76318094D01*
X114424819Y-76318094D02*
X114424819Y-76079999D01*
X114424819Y-76079999D02*
X114472438Y-75937142D01*
X114472438Y-75937142D02*
X114567676Y-75841904D01*
X114567676Y-75841904D02*
X114662914Y-75794285D01*
X114662914Y-75794285D02*
X114853390Y-75746666D01*
X114853390Y-75746666D02*
X114996247Y-75746666D01*
X114996247Y-75746666D02*
X115186723Y-75794285D01*
X115186723Y-75794285D02*
X115281961Y-75841904D01*
X115281961Y-75841904D02*
X115377200Y-75937142D01*
X115377200Y-75937142D02*
X115424819Y-76079999D01*
X115424819Y-76079999D02*
X115424819Y-76318094D01*
X114520057Y-75365713D02*
X114472438Y-75318094D01*
X114472438Y-75318094D02*
X114424819Y-75222856D01*
X114424819Y-75222856D02*
X114424819Y-74984761D01*
X114424819Y-74984761D02*
X114472438Y-74889523D01*
X114472438Y-74889523D02*
X114520057Y-74841904D01*
X114520057Y-74841904D02*
X114615295Y-74794285D01*
X114615295Y-74794285D02*
X114710533Y-74794285D01*
X114710533Y-74794285D02*
X114853390Y-74841904D01*
X114853390Y-74841904D02*
X115424819Y-75413332D01*
X115424819Y-75413332D02*
X115424819Y-74794285D01*
X115054819Y-70761904D02*
X114054819Y-70761904D01*
X115054819Y-70190476D02*
X114483390Y-70619047D01*
X114054819Y-70190476D02*
X114626247Y-70761904D01*
X126054819Y-78996666D02*
X125578628Y-79329999D01*
X126054819Y-79568094D02*
X125054819Y-79568094D01*
X125054819Y-79568094D02*
X125054819Y-79187142D01*
X125054819Y-79187142D02*
X125102438Y-79091904D01*
X125102438Y-79091904D02*
X125150057Y-79044285D01*
X125150057Y-79044285D02*
X125245295Y-78996666D01*
X125245295Y-78996666D02*
X125388152Y-78996666D01*
X125388152Y-78996666D02*
X125483390Y-79044285D01*
X125483390Y-79044285D02*
X125531009Y-79091904D01*
X125531009Y-79091904D02*
X125578628Y-79187142D01*
X125578628Y-79187142D02*
X125578628Y-79568094D01*
X125150057Y-78615713D02*
X125102438Y-78568094D01*
X125102438Y-78568094D02*
X125054819Y-78472856D01*
X125054819Y-78472856D02*
X125054819Y-78234761D01*
X125054819Y-78234761D02*
X125102438Y-78139523D01*
X125102438Y-78139523D02*
X125150057Y-78091904D01*
X125150057Y-78091904D02*
X125245295Y-78044285D01*
X125245295Y-78044285D02*
X125340533Y-78044285D01*
X125340533Y-78044285D02*
X125483390Y-78091904D01*
X125483390Y-78091904D02*
X126054819Y-78663332D01*
X126054819Y-78663332D02*
X126054819Y-78044285D01*
X126054819Y-63996666D02*
X125578628Y-64329999D01*
X126054819Y-64568094D02*
X125054819Y-64568094D01*
X125054819Y-64568094D02*
X125054819Y-64187142D01*
X125054819Y-64187142D02*
X125102438Y-64091904D01*
X125102438Y-64091904D02*
X125150057Y-64044285D01*
X125150057Y-64044285D02*
X125245295Y-63996666D01*
X125245295Y-63996666D02*
X125388152Y-63996666D01*
X125388152Y-63996666D02*
X125483390Y-64044285D01*
X125483390Y-64044285D02*
X125531009Y-64091904D01*
X125531009Y-64091904D02*
X125578628Y-64187142D01*
X125578628Y-64187142D02*
X125578628Y-64568094D01*
X126054819Y-63044285D02*
X126054819Y-63615713D01*
X126054819Y-63329999D02*
X125054819Y-63329999D01*
X125054819Y-63329999D02*
X125197676Y-63425237D01*
X125197676Y-63425237D02*
X125292914Y-63520475D01*
X125292914Y-63520475D02*
X125340533Y-63615713D01*
X195754819Y-76771904D02*
X196564342Y-76771904D01*
X196564342Y-76771904D02*
X196659580Y-76724285D01*
X196659580Y-76724285D02*
X196707200Y-76676666D01*
X196707200Y-76676666D02*
X196754819Y-76581428D01*
X196754819Y-76581428D02*
X196754819Y-76390952D01*
X196754819Y-76390952D02*
X196707200Y-76295714D01*
X196707200Y-76295714D02*
X196659580Y-76248095D01*
X196659580Y-76248095D02*
X196564342Y-76200476D01*
X196564342Y-76200476D02*
X195754819Y-76200476D01*
X195850057Y-75771904D02*
X195802438Y-75724285D01*
X195802438Y-75724285D02*
X195754819Y-75629047D01*
X195754819Y-75629047D02*
X195754819Y-75390952D01*
X195754819Y-75390952D02*
X195802438Y-75295714D01*
X195802438Y-75295714D02*
X195850057Y-75248095D01*
X195850057Y-75248095D02*
X195945295Y-75200476D01*
X195945295Y-75200476D02*
X196040533Y-75200476D01*
X196040533Y-75200476D02*
X196183390Y-75248095D01*
X196183390Y-75248095D02*
X196754819Y-75819523D01*
X196754819Y-75819523D02*
X196754819Y-75200476D01*
X209454819Y-81827619D02*
X209454819Y-82303809D01*
X209454819Y-82303809D02*
X208454819Y-82303809D01*
X209454819Y-81494285D02*
X208454819Y-81494285D01*
X208454819Y-81494285D02*
X209169104Y-81160952D01*
X209169104Y-81160952D02*
X208454819Y-80827619D01*
X208454819Y-80827619D02*
X209454819Y-80827619D01*
X208550057Y-80399047D02*
X208502438Y-80351428D01*
X208502438Y-80351428D02*
X208454819Y-80256190D01*
X208454819Y-80256190D02*
X208454819Y-80018095D01*
X208454819Y-80018095D02*
X208502438Y-79922857D01*
X208502438Y-79922857D02*
X208550057Y-79875238D01*
X208550057Y-79875238D02*
X208645295Y-79827619D01*
X208645295Y-79827619D02*
X208740533Y-79827619D01*
X208740533Y-79827619D02*
X208883390Y-79875238D01*
X208883390Y-79875238D02*
X209454819Y-80446666D01*
X209454819Y-80446666D02*
X209454819Y-79827619D01*
X208454819Y-78922857D02*
X208454819Y-79399047D01*
X208454819Y-79399047D02*
X208931009Y-79446666D01*
X208931009Y-79446666D02*
X208883390Y-79399047D01*
X208883390Y-79399047D02*
X208835771Y-79303809D01*
X208835771Y-79303809D02*
X208835771Y-79065714D01*
X208835771Y-79065714D02*
X208883390Y-78970476D01*
X208883390Y-78970476D02*
X208931009Y-78922857D01*
X208931009Y-78922857D02*
X209026247Y-78875238D01*
X209026247Y-78875238D02*
X209264342Y-78875238D01*
X209264342Y-78875238D02*
X209359580Y-78922857D01*
X209359580Y-78922857D02*
X209407200Y-78970476D01*
X209407200Y-78970476D02*
X209454819Y-79065714D01*
X209454819Y-79065714D02*
X209454819Y-79303809D01*
X209454819Y-79303809D02*
X209407200Y-79399047D01*
X209407200Y-79399047D02*
X209359580Y-79446666D01*
X209454819Y-78399047D02*
X209454819Y-78208571D01*
X209454819Y-78208571D02*
X209407200Y-78113333D01*
X209407200Y-78113333D02*
X209359580Y-78065714D01*
X209359580Y-78065714D02*
X209216723Y-77970476D01*
X209216723Y-77970476D02*
X209026247Y-77922857D01*
X209026247Y-77922857D02*
X208645295Y-77922857D01*
X208645295Y-77922857D02*
X208550057Y-77970476D01*
X208550057Y-77970476D02*
X208502438Y-78018095D01*
X208502438Y-78018095D02*
X208454819Y-78113333D01*
X208454819Y-78113333D02*
X208454819Y-78303809D01*
X208454819Y-78303809D02*
X208502438Y-78399047D01*
X208502438Y-78399047D02*
X208550057Y-78446666D01*
X208550057Y-78446666D02*
X208645295Y-78494285D01*
X208645295Y-78494285D02*
X208883390Y-78494285D01*
X208883390Y-78494285D02*
X208978628Y-78446666D01*
X208978628Y-78446666D02*
X209026247Y-78399047D01*
X209026247Y-78399047D02*
X209073866Y-78303809D01*
X209073866Y-78303809D02*
X209073866Y-78113333D01*
X209073866Y-78113333D02*
X209026247Y-78018095D01*
X209026247Y-78018095D02*
X208978628Y-77970476D01*
X208978628Y-77970476D02*
X208883390Y-77922857D01*
X208454819Y-77065714D02*
X208454819Y-77256190D01*
X208454819Y-77256190D02*
X208502438Y-77351428D01*
X208502438Y-77351428D02*
X208550057Y-77399047D01*
X208550057Y-77399047D02*
X208692914Y-77494285D01*
X208692914Y-77494285D02*
X208883390Y-77541904D01*
X208883390Y-77541904D02*
X209264342Y-77541904D01*
X209264342Y-77541904D02*
X209359580Y-77494285D01*
X209359580Y-77494285D02*
X209407200Y-77446666D01*
X209407200Y-77446666D02*
X209454819Y-77351428D01*
X209454819Y-77351428D02*
X209454819Y-77160952D01*
X209454819Y-77160952D02*
X209407200Y-77065714D01*
X209407200Y-77065714D02*
X209359580Y-77018095D01*
X209359580Y-77018095D02*
X209264342Y-76970476D01*
X209264342Y-76970476D02*
X209026247Y-76970476D01*
X209026247Y-76970476D02*
X208931009Y-77018095D01*
X208931009Y-77018095D02*
X208883390Y-77065714D01*
X208883390Y-77065714D02*
X208835771Y-77160952D01*
X208835771Y-77160952D02*
X208835771Y-77351428D01*
X208835771Y-77351428D02*
X208883390Y-77446666D01*
X208883390Y-77446666D02*
X208931009Y-77494285D01*
X208931009Y-77494285D02*
X209026247Y-77541904D01*
X209550057Y-76780000D02*
X209550057Y-76018095D01*
X209454819Y-75779999D02*
X208454819Y-75779999D01*
X208454819Y-75779999D02*
X208454819Y-75541904D01*
X208454819Y-75541904D02*
X208502438Y-75399047D01*
X208502438Y-75399047D02*
X208597676Y-75303809D01*
X208597676Y-75303809D02*
X208692914Y-75256190D01*
X208692914Y-75256190D02*
X208883390Y-75208571D01*
X208883390Y-75208571D02*
X209026247Y-75208571D01*
X209026247Y-75208571D02*
X209216723Y-75256190D01*
X209216723Y-75256190D02*
X209311961Y-75303809D01*
X209311961Y-75303809D02*
X209407200Y-75399047D01*
X209407200Y-75399047D02*
X209454819Y-75541904D01*
X209454819Y-75541904D02*
X209454819Y-75779999D01*
X209359580Y-74208571D02*
X209407200Y-74256190D01*
X209407200Y-74256190D02*
X209454819Y-74399047D01*
X209454819Y-74399047D02*
X209454819Y-74494285D01*
X209454819Y-74494285D02*
X209407200Y-74637142D01*
X209407200Y-74637142D02*
X209311961Y-74732380D01*
X209311961Y-74732380D02*
X209216723Y-74779999D01*
X209216723Y-74779999D02*
X209026247Y-74827618D01*
X209026247Y-74827618D02*
X208883390Y-74827618D01*
X208883390Y-74827618D02*
X208692914Y-74779999D01*
X208692914Y-74779999D02*
X208597676Y-74732380D01*
X208597676Y-74732380D02*
X208502438Y-74637142D01*
X208502438Y-74637142D02*
X208454819Y-74494285D01*
X208454819Y-74494285D02*
X208454819Y-74399047D01*
X208454819Y-74399047D02*
X208502438Y-74256190D01*
X208502438Y-74256190D02*
X208550057Y-74208571D01*
X209454819Y-73779999D02*
X208454819Y-73779999D01*
X208454819Y-73779999D02*
X208454819Y-73541904D01*
X208454819Y-73541904D02*
X208502438Y-73399047D01*
X208502438Y-73399047D02*
X208597676Y-73303809D01*
X208597676Y-73303809D02*
X208692914Y-73256190D01*
X208692914Y-73256190D02*
X208883390Y-73208571D01*
X208883390Y-73208571D02*
X209026247Y-73208571D01*
X209026247Y-73208571D02*
X209216723Y-73256190D01*
X209216723Y-73256190D02*
X209311961Y-73303809D01*
X209311961Y-73303809D02*
X209407200Y-73399047D01*
X209407200Y-73399047D02*
X209454819Y-73541904D01*
X209454819Y-73541904D02*
X209454819Y-73779999D01*
X209359580Y-72208571D02*
X209407200Y-72256190D01*
X209407200Y-72256190D02*
X209454819Y-72399047D01*
X209454819Y-72399047D02*
X209454819Y-72494285D01*
X209454819Y-72494285D02*
X209407200Y-72637142D01*
X209407200Y-72637142D02*
X209311961Y-72732380D01*
X209311961Y-72732380D02*
X209216723Y-72779999D01*
X209216723Y-72779999D02*
X209026247Y-72827618D01*
X209026247Y-72827618D02*
X208883390Y-72827618D01*
X208883390Y-72827618D02*
X208692914Y-72779999D01*
X208692914Y-72779999D02*
X208597676Y-72732380D01*
X208597676Y-72732380D02*
X208502438Y-72637142D01*
X208502438Y-72637142D02*
X208454819Y-72494285D01*
X208454819Y-72494285D02*
X208454819Y-72399047D01*
X208454819Y-72399047D02*
X208502438Y-72256190D01*
X208502438Y-72256190D02*
X208550057Y-72208571D01*
D12*
X217261905Y-49456899D02*
X217261905Y-48456899D01*
X217261905Y-48456899D02*
X217500000Y-48456899D01*
X217500000Y-48456899D02*
X217642857Y-48504518D01*
X217642857Y-48504518D02*
X217738095Y-48599756D01*
X217738095Y-48599756D02*
X217785714Y-48694994D01*
X217785714Y-48694994D02*
X217833333Y-48885470D01*
X217833333Y-48885470D02*
X217833333Y-49028327D01*
X217833333Y-49028327D02*
X217785714Y-49218803D01*
X217785714Y-49218803D02*
X217738095Y-49314041D01*
X217738095Y-49314041D02*
X217642857Y-49409280D01*
X217642857Y-49409280D02*
X217500000Y-49456899D01*
X217500000Y-49456899D02*
X217261905Y-49456899D01*
X218261905Y-49456899D02*
X218261905Y-48456899D01*
X218261905Y-48933089D02*
X218833333Y-48933089D01*
X218833333Y-49456899D02*
X218833333Y-48456899D01*
X219166667Y-48456899D02*
X219738095Y-48456899D01*
X219452381Y-49456899D02*
X219452381Y-48456899D01*
X220071429Y-49075946D02*
X220833334Y-49075946D01*
X221833333Y-49456899D02*
X221261905Y-49456899D01*
X221547619Y-49456899D02*
X221547619Y-48456899D01*
X221547619Y-48456899D02*
X221452381Y-48599756D01*
X221452381Y-48599756D02*
X221357143Y-48694994D01*
X221357143Y-48694994D02*
X221261905Y-48742613D01*
X222785714Y-49456899D02*
X222214286Y-49456899D01*
X222500000Y-49456899D02*
X222500000Y-48456899D01*
X222500000Y-48456899D02*
X222404762Y-48599756D01*
X222404762Y-48599756D02*
X222309524Y-48694994D01*
X222309524Y-48694994D02*
X222214286Y-48742613D01*
D10*
X200595238Y-48457419D02*
X200595238Y-49266942D01*
X200595238Y-49266942D02*
X200642857Y-49362180D01*
X200642857Y-49362180D02*
X200690476Y-49409800D01*
X200690476Y-49409800D02*
X200785714Y-49457419D01*
X200785714Y-49457419D02*
X200976190Y-49457419D01*
X200976190Y-49457419D02*
X201071428Y-49409800D01*
X201071428Y-49409800D02*
X201119047Y-49362180D01*
X201119047Y-49362180D02*
X201166666Y-49266942D01*
X201166666Y-49266942D02*
X201166666Y-48457419D01*
X202119047Y-49457419D02*
X201642857Y-49457419D01*
X201642857Y-49457419D02*
X201642857Y-48457419D01*
X202309524Y-48457419D02*
X202880952Y-48457419D01*
X202595238Y-49457419D02*
X202595238Y-48457419D01*
X202976191Y-49552657D02*
X203738095Y-49552657D01*
X203928572Y-49409800D02*
X204071429Y-49457419D01*
X204071429Y-49457419D02*
X204309524Y-49457419D01*
X204309524Y-49457419D02*
X204404762Y-49409800D01*
X204404762Y-49409800D02*
X204452381Y-49362180D01*
X204452381Y-49362180D02*
X204500000Y-49266942D01*
X204500000Y-49266942D02*
X204500000Y-49171704D01*
X204500000Y-49171704D02*
X204452381Y-49076466D01*
X204452381Y-49076466D02*
X204404762Y-49028847D01*
X204404762Y-49028847D02*
X204309524Y-48981228D01*
X204309524Y-48981228D02*
X204119048Y-48933609D01*
X204119048Y-48933609D02*
X204023810Y-48885990D01*
X204023810Y-48885990D02*
X203976191Y-48838371D01*
X203976191Y-48838371D02*
X203928572Y-48743133D01*
X203928572Y-48743133D02*
X203928572Y-48647895D01*
X203928572Y-48647895D02*
X203976191Y-48552657D01*
X203976191Y-48552657D02*
X204023810Y-48505038D01*
X204023810Y-48505038D02*
X204119048Y-48457419D01*
X204119048Y-48457419D02*
X204357143Y-48457419D01*
X204357143Y-48457419D02*
X204500000Y-48505038D01*
X204928572Y-48933609D02*
X205261905Y-48933609D01*
X205404762Y-49457419D02*
X204928572Y-49457419D01*
X204928572Y-49457419D02*
X204928572Y-48457419D01*
X204928572Y-48457419D02*
X205404762Y-48457419D01*
X205833334Y-49457419D02*
X205833334Y-48457419D01*
X205833334Y-48457419D02*
X206404762Y-49457419D01*
X206404762Y-49457419D02*
X206404762Y-48457419D01*
X206833334Y-49409800D02*
X206976191Y-49457419D01*
X206976191Y-49457419D02*
X207214286Y-49457419D01*
X207214286Y-49457419D02*
X207309524Y-49409800D01*
X207309524Y-49409800D02*
X207357143Y-49362180D01*
X207357143Y-49362180D02*
X207404762Y-49266942D01*
X207404762Y-49266942D02*
X207404762Y-49171704D01*
X207404762Y-49171704D02*
X207357143Y-49076466D01*
X207357143Y-49076466D02*
X207309524Y-49028847D01*
X207309524Y-49028847D02*
X207214286Y-48981228D01*
X207214286Y-48981228D02*
X207023810Y-48933609D01*
X207023810Y-48933609D02*
X206928572Y-48885990D01*
X206928572Y-48885990D02*
X206880953Y-48838371D01*
X206880953Y-48838371D02*
X206833334Y-48743133D01*
X206833334Y-48743133D02*
X206833334Y-48647895D01*
X206833334Y-48647895D02*
X206880953Y-48552657D01*
X206880953Y-48552657D02*
X206928572Y-48505038D01*
X206928572Y-48505038D02*
X207023810Y-48457419D01*
X207023810Y-48457419D02*
X207261905Y-48457419D01*
X207261905Y-48457419D02*
X207404762Y-48505038D01*
X208023810Y-48457419D02*
X208214286Y-48457419D01*
X208214286Y-48457419D02*
X208309524Y-48505038D01*
X208309524Y-48505038D02*
X208404762Y-48600276D01*
X208404762Y-48600276D02*
X208452381Y-48790752D01*
X208452381Y-48790752D02*
X208452381Y-49124085D01*
X208452381Y-49124085D02*
X208404762Y-49314561D01*
X208404762Y-49314561D02*
X208309524Y-49409800D01*
X208309524Y-49409800D02*
X208214286Y-49457419D01*
X208214286Y-49457419D02*
X208023810Y-49457419D01*
X208023810Y-49457419D02*
X207928572Y-49409800D01*
X207928572Y-49409800D02*
X207833334Y-49314561D01*
X207833334Y-49314561D02*
X207785715Y-49124085D01*
X207785715Y-49124085D02*
X207785715Y-48790752D01*
X207785715Y-48790752D02*
X207833334Y-48600276D01*
X207833334Y-48600276D02*
X207928572Y-48505038D01*
X207928572Y-48505038D02*
X208023810Y-48457419D01*
X209452381Y-49457419D02*
X209119048Y-48981228D01*
X208880953Y-49457419D02*
X208880953Y-48457419D01*
X208880953Y-48457419D02*
X209261905Y-48457419D01*
X209261905Y-48457419D02*
X209357143Y-48505038D01*
X209357143Y-48505038D02*
X209404762Y-48552657D01*
X209404762Y-48552657D02*
X209452381Y-48647895D01*
X209452381Y-48647895D02*
X209452381Y-48790752D01*
X209452381Y-48790752D02*
X209404762Y-48885990D01*
X209404762Y-48885990D02*
X209357143Y-48933609D01*
X209357143Y-48933609D02*
X209261905Y-48981228D01*
X209261905Y-48981228D02*
X208880953Y-48981228D01*
D11*
X154434819Y-73689523D02*
X155149104Y-73689523D01*
X155149104Y-73689523D02*
X155291961Y-73737142D01*
X155291961Y-73737142D02*
X155387200Y-73832380D01*
X155387200Y-73832380D02*
X155434819Y-73975237D01*
X155434819Y-73975237D02*
X155434819Y-74070475D01*
X155434819Y-72689523D02*
X155434819Y-73260951D01*
X155434819Y-72975237D02*
X154434819Y-72975237D01*
X154434819Y-72975237D02*
X154577676Y-73070475D01*
X154577676Y-73070475D02*
X154672914Y-73165713D01*
X154672914Y-73165713D02*
X154720533Y-73260951D01*
X154434819Y-72070475D02*
X154434819Y-71975237D01*
X154434819Y-71975237D02*
X154482438Y-71879999D01*
X154482438Y-71879999D02*
X154530057Y-71832380D01*
X154530057Y-71832380D02*
X154625295Y-71784761D01*
X154625295Y-71784761D02*
X154815771Y-71737142D01*
X154815771Y-71737142D02*
X155053866Y-71737142D01*
X155053866Y-71737142D02*
X155244342Y-71784761D01*
X155244342Y-71784761D02*
X155339580Y-71832380D01*
X155339580Y-71832380D02*
X155387200Y-71879999D01*
X155387200Y-71879999D02*
X155434819Y-71975237D01*
X155434819Y-71975237D02*
X155434819Y-72070475D01*
X155434819Y-72070475D02*
X155387200Y-72165713D01*
X155387200Y-72165713D02*
X155339580Y-72213332D01*
X155339580Y-72213332D02*
X155244342Y-72260951D01*
X155244342Y-72260951D02*
X155053866Y-72308570D01*
X155053866Y-72308570D02*
X154815771Y-72308570D01*
X154815771Y-72308570D02*
X154625295Y-72260951D01*
X154625295Y-72260951D02*
X154530057Y-72213332D01*
X154530057Y-72213332D02*
X154482438Y-72165713D01*
X154482438Y-72165713D02*
X154434819Y-72070475D01*
X115424819Y-62238094D02*
X114424819Y-62238094D01*
X114424819Y-62238094D02*
X114424819Y-61999999D01*
X114424819Y-61999999D02*
X114472438Y-61857142D01*
X114472438Y-61857142D02*
X114567676Y-61761904D01*
X114567676Y-61761904D02*
X114662914Y-61714285D01*
X114662914Y-61714285D02*
X114853390Y-61666666D01*
X114853390Y-61666666D02*
X114996247Y-61666666D01*
X114996247Y-61666666D02*
X115186723Y-61714285D01*
X115186723Y-61714285D02*
X115281961Y-61761904D01*
X115281961Y-61761904D02*
X115377200Y-61857142D01*
X115377200Y-61857142D02*
X115424819Y-61999999D01*
X115424819Y-61999999D02*
X115424819Y-62238094D01*
X115424819Y-60714285D02*
X115424819Y-61285713D01*
X115424819Y-60999999D02*
X114424819Y-60999999D01*
X114424819Y-60999999D02*
X114567676Y-61095237D01*
X114567676Y-61095237D02*
X114662914Y-61190475D01*
X114662914Y-61190475D02*
X114710533Y-61285713D01*
X115054819Y-56681904D02*
X114054819Y-56681904D01*
X115054819Y-56110476D02*
X114483390Y-56539047D01*
X114054819Y-56110476D02*
X114626247Y-56681904D01*
X197739104Y-113704285D02*
X197739104Y-113228095D01*
X198024819Y-113799523D02*
X197024819Y-113466190D01*
X197024819Y-113466190D02*
X198024819Y-113132857D01*
X197120057Y-112847142D02*
X197072438Y-112799523D01*
X197072438Y-112799523D02*
X197024819Y-112704285D01*
X197024819Y-112704285D02*
X197024819Y-112466190D01*
X197024819Y-112466190D02*
X197072438Y-112370952D01*
X197072438Y-112370952D02*
X197120057Y-112323333D01*
X197120057Y-112323333D02*
X197215295Y-112275714D01*
X197215295Y-112275714D02*
X197310533Y-112275714D01*
X197310533Y-112275714D02*
X197453390Y-112323333D01*
X197453390Y-112323333D02*
X198024819Y-112894761D01*
X198024819Y-112894761D02*
X198024819Y-112275714D01*
D10*
X205047619Y-113161704D02*
X205523809Y-113161704D01*
X204952381Y-113447419D02*
X205285714Y-112447419D01*
X205285714Y-112447419D02*
X205619047Y-113447419D01*
X206380952Y-112780752D02*
X206380952Y-113447419D01*
X206142857Y-112399800D02*
X205904762Y-113114085D01*
X205904762Y-113114085D02*
X206523809Y-113114085D01*
X206952381Y-113447419D02*
X207142857Y-113447419D01*
X207142857Y-113447419D02*
X207238095Y-113399800D01*
X207238095Y-113399800D02*
X207285714Y-113352180D01*
X207285714Y-113352180D02*
X207380952Y-113209323D01*
X207380952Y-113209323D02*
X207428571Y-113018847D01*
X207428571Y-113018847D02*
X207428571Y-112637895D01*
X207428571Y-112637895D02*
X207380952Y-112542657D01*
X207380952Y-112542657D02*
X207333333Y-112495038D01*
X207333333Y-112495038D02*
X207238095Y-112447419D01*
X207238095Y-112447419D02*
X207047619Y-112447419D01*
X207047619Y-112447419D02*
X206952381Y-112495038D01*
X206952381Y-112495038D02*
X206904762Y-112542657D01*
X206904762Y-112542657D02*
X206857143Y-112637895D01*
X206857143Y-112637895D02*
X206857143Y-112875990D01*
X206857143Y-112875990D02*
X206904762Y-112971228D01*
X206904762Y-112971228D02*
X206952381Y-113018847D01*
X206952381Y-113018847D02*
X207047619Y-113066466D01*
X207047619Y-113066466D02*
X207238095Y-113066466D01*
X207238095Y-113066466D02*
X207333333Y-113018847D01*
X207333333Y-113018847D02*
X207380952Y-112971228D01*
X207380952Y-112971228D02*
X207428571Y-112875990D01*
X208000000Y-112875990D02*
X207904762Y-112828371D01*
X207904762Y-112828371D02*
X207857143Y-112780752D01*
X207857143Y-112780752D02*
X207809524Y-112685514D01*
X207809524Y-112685514D02*
X207809524Y-112637895D01*
X207809524Y-112637895D02*
X207857143Y-112542657D01*
X207857143Y-112542657D02*
X207904762Y-112495038D01*
X207904762Y-112495038D02*
X208000000Y-112447419D01*
X208000000Y-112447419D02*
X208190476Y-112447419D01*
X208190476Y-112447419D02*
X208285714Y-112495038D01*
X208285714Y-112495038D02*
X208333333Y-112542657D01*
X208333333Y-112542657D02*
X208380952Y-112637895D01*
X208380952Y-112637895D02*
X208380952Y-112685514D01*
X208380952Y-112685514D02*
X208333333Y-112780752D01*
X208333333Y-112780752D02*
X208285714Y-112828371D01*
X208285714Y-112828371D02*
X208190476Y-112875990D01*
X208190476Y-112875990D02*
X208000000Y-112875990D01*
X208000000Y-112875990D02*
X207904762Y-112923609D01*
X207904762Y-112923609D02*
X207857143Y-112971228D01*
X207857143Y-112971228D02*
X207809524Y-113066466D01*
X207809524Y-113066466D02*
X207809524Y-113256942D01*
X207809524Y-113256942D02*
X207857143Y-113352180D01*
X207857143Y-113352180D02*
X207904762Y-113399800D01*
X207904762Y-113399800D02*
X208000000Y-113447419D01*
X208000000Y-113447419D02*
X208190476Y-113447419D01*
X208190476Y-113447419D02*
X208285714Y-113399800D01*
X208285714Y-113399800D02*
X208333333Y-113352180D01*
X208333333Y-113352180D02*
X208380952Y-113256942D01*
X208380952Y-113256942D02*
X208380952Y-113066466D01*
X208380952Y-113066466D02*
X208333333Y-112971228D01*
X208333333Y-112971228D02*
X208285714Y-112923609D01*
X208285714Y-112923609D02*
X208190476Y-112875990D01*
X208952381Y-112875990D02*
X208857143Y-112828371D01*
X208857143Y-112828371D02*
X208809524Y-112780752D01*
X208809524Y-112780752D02*
X208761905Y-112685514D01*
X208761905Y-112685514D02*
X208761905Y-112637895D01*
X208761905Y-112637895D02*
X208809524Y-112542657D01*
X208809524Y-112542657D02*
X208857143Y-112495038D01*
X208857143Y-112495038D02*
X208952381Y-112447419D01*
X208952381Y-112447419D02*
X209142857Y-112447419D01*
X209142857Y-112447419D02*
X209238095Y-112495038D01*
X209238095Y-112495038D02*
X209285714Y-112542657D01*
X209285714Y-112542657D02*
X209333333Y-112637895D01*
X209333333Y-112637895D02*
X209333333Y-112685514D01*
X209333333Y-112685514D02*
X209285714Y-112780752D01*
X209285714Y-112780752D02*
X209238095Y-112828371D01*
X209238095Y-112828371D02*
X209142857Y-112875990D01*
X209142857Y-112875990D02*
X208952381Y-112875990D01*
X208952381Y-112875990D02*
X208857143Y-112923609D01*
X208857143Y-112923609D02*
X208809524Y-112971228D01*
X208809524Y-112971228D02*
X208761905Y-113066466D01*
X208761905Y-113066466D02*
X208761905Y-113256942D01*
X208761905Y-113256942D02*
X208809524Y-113352180D01*
X208809524Y-113352180D02*
X208857143Y-113399800D01*
X208857143Y-113399800D02*
X208952381Y-113447419D01*
X208952381Y-113447419D02*
X209142857Y-113447419D01*
X209142857Y-113447419D02*
X209238095Y-113399800D01*
X209238095Y-113399800D02*
X209285714Y-113352180D01*
X209285714Y-113352180D02*
X209333333Y-113256942D01*
X209333333Y-113256942D02*
X209333333Y-113066466D01*
X209333333Y-113066466D02*
X209285714Y-112971228D01*
X209285714Y-112971228D02*
X209238095Y-112923609D01*
X209238095Y-112923609D02*
X209142857Y-112875990D01*
X209523810Y-113542657D02*
X210285714Y-113542657D01*
X210523810Y-113447419D02*
X210523810Y-112447419D01*
X210523810Y-112447419D02*
X210761905Y-112447419D01*
X210761905Y-112447419D02*
X210904762Y-112495038D01*
X210904762Y-112495038D02*
X211000000Y-112590276D01*
X211000000Y-112590276D02*
X211047619Y-112685514D01*
X211047619Y-112685514D02*
X211095238Y-112875990D01*
X211095238Y-112875990D02*
X211095238Y-113018847D01*
X211095238Y-113018847D02*
X211047619Y-113209323D01*
X211047619Y-113209323D02*
X211000000Y-113304561D01*
X211000000Y-113304561D02*
X210904762Y-113399800D01*
X210904762Y-113399800D02*
X210761905Y-113447419D01*
X210761905Y-113447419D02*
X210523810Y-113447419D01*
X212095238Y-113447419D02*
X211761905Y-112971228D01*
X211523810Y-113447419D02*
X211523810Y-112447419D01*
X211523810Y-112447419D02*
X211904762Y-112447419D01*
X211904762Y-112447419D02*
X212000000Y-112495038D01*
X212000000Y-112495038D02*
X212047619Y-112542657D01*
X212047619Y-112542657D02*
X212095238Y-112637895D01*
X212095238Y-112637895D02*
X212095238Y-112780752D01*
X212095238Y-112780752D02*
X212047619Y-112875990D01*
X212047619Y-112875990D02*
X212000000Y-112923609D01*
X212000000Y-112923609D02*
X211904762Y-112971228D01*
X211904762Y-112971228D02*
X211523810Y-112971228D01*
X212380953Y-112447419D02*
X212714286Y-113447419D01*
X212714286Y-113447419D02*
X213047619Y-112447419D01*
X223457419Y-59261904D02*
X224457419Y-59023809D01*
X224457419Y-59023809D02*
X223743133Y-58833333D01*
X223743133Y-58833333D02*
X224457419Y-58642857D01*
X224457419Y-58642857D02*
X223457419Y-58404762D01*
X223457419Y-58166666D02*
X223457419Y-57595238D01*
X224457419Y-57880952D02*
X223457419Y-57880952D01*
X224457419Y-56690476D02*
X223981228Y-57023809D01*
X224457419Y-57261904D02*
X223457419Y-57261904D01*
X223457419Y-57261904D02*
X223457419Y-56880952D01*
X223457419Y-56880952D02*
X223505038Y-56785714D01*
X223505038Y-56785714D02*
X223552657Y-56738095D01*
X223552657Y-56738095D02*
X223647895Y-56690476D01*
X223647895Y-56690476D02*
X223790752Y-56690476D01*
X223790752Y-56690476D02*
X223885990Y-56738095D01*
X223885990Y-56738095D02*
X223933609Y-56785714D01*
X223933609Y-56785714D02*
X223981228Y-56880952D01*
X223981228Y-56880952D02*
X223981228Y-57261904D01*
X224552657Y-56500000D02*
X224552657Y-55738095D01*
X224457419Y-55499999D02*
X223457419Y-55499999D01*
X223457419Y-55499999D02*
X223457419Y-55119047D01*
X223457419Y-55119047D02*
X223505038Y-55023809D01*
X223505038Y-55023809D02*
X223552657Y-54976190D01*
X223552657Y-54976190D02*
X223647895Y-54928571D01*
X223647895Y-54928571D02*
X223790752Y-54928571D01*
X223790752Y-54928571D02*
X223885990Y-54976190D01*
X223885990Y-54976190D02*
X223933609Y-55023809D01*
X223933609Y-55023809D02*
X223981228Y-55119047D01*
X223981228Y-55119047D02*
X223981228Y-55499999D01*
X224457419Y-54499999D02*
X223457419Y-54499999D01*
X223457419Y-54499999D02*
X224171704Y-54166666D01*
X224171704Y-54166666D02*
X223457419Y-53833333D01*
X223457419Y-53833333D02*
X224457419Y-53833333D01*
X224457419Y-53357142D02*
X223457419Y-53357142D01*
X223457419Y-53357142D02*
X223457419Y-52976190D01*
X223457419Y-52976190D02*
X223505038Y-52880952D01*
X223505038Y-52880952D02*
X223552657Y-52833333D01*
X223552657Y-52833333D02*
X223647895Y-52785714D01*
X223647895Y-52785714D02*
X223790752Y-52785714D01*
X223790752Y-52785714D02*
X223885990Y-52833333D01*
X223885990Y-52833333D02*
X223933609Y-52880952D01*
X223933609Y-52880952D02*
X223981228Y-52976190D01*
X223981228Y-52976190D02*
X223981228Y-53357142D01*
D11*
X101254819Y-107491904D02*
X102064342Y-107491904D01*
X102064342Y-107491904D02*
X102159580Y-107444285D01*
X102159580Y-107444285D02*
X102207200Y-107396666D01*
X102207200Y-107396666D02*
X102254819Y-107301428D01*
X102254819Y-107301428D02*
X102254819Y-107110952D01*
X102254819Y-107110952D02*
X102207200Y-107015714D01*
X102207200Y-107015714D02*
X102159580Y-106968095D01*
X102159580Y-106968095D02*
X102064342Y-106920476D01*
X102064342Y-106920476D02*
X101254819Y-106920476D01*
X102254819Y-105920476D02*
X102254819Y-106491904D01*
X102254819Y-106206190D02*
X101254819Y-106206190D01*
X101254819Y-106206190D02*
X101397676Y-106301428D01*
X101397676Y-106301428D02*
X101492914Y-106396666D01*
X101492914Y-106396666D02*
X101540533Y-106491904D01*
X114954819Y-112547619D02*
X114954819Y-113023809D01*
X114954819Y-113023809D02*
X113954819Y-113023809D01*
X114954819Y-112214285D02*
X113954819Y-112214285D01*
X113954819Y-112214285D02*
X114669104Y-111880952D01*
X114669104Y-111880952D02*
X113954819Y-111547619D01*
X113954819Y-111547619D02*
X114954819Y-111547619D01*
X114050057Y-111119047D02*
X114002438Y-111071428D01*
X114002438Y-111071428D02*
X113954819Y-110976190D01*
X113954819Y-110976190D02*
X113954819Y-110738095D01*
X113954819Y-110738095D02*
X114002438Y-110642857D01*
X114002438Y-110642857D02*
X114050057Y-110595238D01*
X114050057Y-110595238D02*
X114145295Y-110547619D01*
X114145295Y-110547619D02*
X114240533Y-110547619D01*
X114240533Y-110547619D02*
X114383390Y-110595238D01*
X114383390Y-110595238D02*
X114954819Y-111166666D01*
X114954819Y-111166666D02*
X114954819Y-110547619D01*
X113954819Y-109642857D02*
X113954819Y-110119047D01*
X113954819Y-110119047D02*
X114431009Y-110166666D01*
X114431009Y-110166666D02*
X114383390Y-110119047D01*
X114383390Y-110119047D02*
X114335771Y-110023809D01*
X114335771Y-110023809D02*
X114335771Y-109785714D01*
X114335771Y-109785714D02*
X114383390Y-109690476D01*
X114383390Y-109690476D02*
X114431009Y-109642857D01*
X114431009Y-109642857D02*
X114526247Y-109595238D01*
X114526247Y-109595238D02*
X114764342Y-109595238D01*
X114764342Y-109595238D02*
X114859580Y-109642857D01*
X114859580Y-109642857D02*
X114907200Y-109690476D01*
X114907200Y-109690476D02*
X114954819Y-109785714D01*
X114954819Y-109785714D02*
X114954819Y-110023809D01*
X114954819Y-110023809D02*
X114907200Y-110119047D01*
X114907200Y-110119047D02*
X114859580Y-110166666D01*
X114954819Y-109119047D02*
X114954819Y-108928571D01*
X114954819Y-108928571D02*
X114907200Y-108833333D01*
X114907200Y-108833333D02*
X114859580Y-108785714D01*
X114859580Y-108785714D02*
X114716723Y-108690476D01*
X114716723Y-108690476D02*
X114526247Y-108642857D01*
X114526247Y-108642857D02*
X114145295Y-108642857D01*
X114145295Y-108642857D02*
X114050057Y-108690476D01*
X114050057Y-108690476D02*
X114002438Y-108738095D01*
X114002438Y-108738095D02*
X113954819Y-108833333D01*
X113954819Y-108833333D02*
X113954819Y-109023809D01*
X113954819Y-109023809D02*
X114002438Y-109119047D01*
X114002438Y-109119047D02*
X114050057Y-109166666D01*
X114050057Y-109166666D02*
X114145295Y-109214285D01*
X114145295Y-109214285D02*
X114383390Y-109214285D01*
X114383390Y-109214285D02*
X114478628Y-109166666D01*
X114478628Y-109166666D02*
X114526247Y-109119047D01*
X114526247Y-109119047D02*
X114573866Y-109023809D01*
X114573866Y-109023809D02*
X114573866Y-108833333D01*
X114573866Y-108833333D02*
X114526247Y-108738095D01*
X114526247Y-108738095D02*
X114478628Y-108690476D01*
X114478628Y-108690476D02*
X114383390Y-108642857D01*
X113954819Y-107785714D02*
X113954819Y-107976190D01*
X113954819Y-107976190D02*
X114002438Y-108071428D01*
X114002438Y-108071428D02*
X114050057Y-108119047D01*
X114050057Y-108119047D02*
X114192914Y-108214285D01*
X114192914Y-108214285D02*
X114383390Y-108261904D01*
X114383390Y-108261904D02*
X114764342Y-108261904D01*
X114764342Y-108261904D02*
X114859580Y-108214285D01*
X114859580Y-108214285D02*
X114907200Y-108166666D01*
X114907200Y-108166666D02*
X114954819Y-108071428D01*
X114954819Y-108071428D02*
X114954819Y-107880952D01*
X114954819Y-107880952D02*
X114907200Y-107785714D01*
X114907200Y-107785714D02*
X114859580Y-107738095D01*
X114859580Y-107738095D02*
X114764342Y-107690476D01*
X114764342Y-107690476D02*
X114526247Y-107690476D01*
X114526247Y-107690476D02*
X114431009Y-107738095D01*
X114431009Y-107738095D02*
X114383390Y-107785714D01*
X114383390Y-107785714D02*
X114335771Y-107880952D01*
X114335771Y-107880952D02*
X114335771Y-108071428D01*
X114335771Y-108071428D02*
X114383390Y-108166666D01*
X114383390Y-108166666D02*
X114431009Y-108214285D01*
X114431009Y-108214285D02*
X114526247Y-108261904D01*
X115050057Y-107500000D02*
X115050057Y-106738095D01*
X114954819Y-106499999D02*
X113954819Y-106499999D01*
X113954819Y-106499999D02*
X113954819Y-106261904D01*
X113954819Y-106261904D02*
X114002438Y-106119047D01*
X114002438Y-106119047D02*
X114097676Y-106023809D01*
X114097676Y-106023809D02*
X114192914Y-105976190D01*
X114192914Y-105976190D02*
X114383390Y-105928571D01*
X114383390Y-105928571D02*
X114526247Y-105928571D01*
X114526247Y-105928571D02*
X114716723Y-105976190D01*
X114716723Y-105976190D02*
X114811961Y-106023809D01*
X114811961Y-106023809D02*
X114907200Y-106119047D01*
X114907200Y-106119047D02*
X114954819Y-106261904D01*
X114954819Y-106261904D02*
X114954819Y-106499999D01*
X114859580Y-104928571D02*
X114907200Y-104976190D01*
X114907200Y-104976190D02*
X114954819Y-105119047D01*
X114954819Y-105119047D02*
X114954819Y-105214285D01*
X114954819Y-105214285D02*
X114907200Y-105357142D01*
X114907200Y-105357142D02*
X114811961Y-105452380D01*
X114811961Y-105452380D02*
X114716723Y-105499999D01*
X114716723Y-105499999D02*
X114526247Y-105547618D01*
X114526247Y-105547618D02*
X114383390Y-105547618D01*
X114383390Y-105547618D02*
X114192914Y-105499999D01*
X114192914Y-105499999D02*
X114097676Y-105452380D01*
X114097676Y-105452380D02*
X114002438Y-105357142D01*
X114002438Y-105357142D02*
X113954819Y-105214285D01*
X113954819Y-105214285D02*
X113954819Y-105119047D01*
X113954819Y-105119047D02*
X114002438Y-104976190D01*
X114002438Y-104976190D02*
X114050057Y-104928571D01*
X114954819Y-104499999D02*
X113954819Y-104499999D01*
X113954819Y-104499999D02*
X113954819Y-104261904D01*
X113954819Y-104261904D02*
X114002438Y-104119047D01*
X114002438Y-104119047D02*
X114097676Y-104023809D01*
X114097676Y-104023809D02*
X114192914Y-103976190D01*
X114192914Y-103976190D02*
X114383390Y-103928571D01*
X114383390Y-103928571D02*
X114526247Y-103928571D01*
X114526247Y-103928571D02*
X114716723Y-103976190D01*
X114716723Y-103976190D02*
X114811961Y-104023809D01*
X114811961Y-104023809D02*
X114907200Y-104119047D01*
X114907200Y-104119047D02*
X114954819Y-104261904D01*
X114954819Y-104261904D02*
X114954819Y-104499999D01*
X114859580Y-102928571D02*
X114907200Y-102976190D01*
X114907200Y-102976190D02*
X114954819Y-103119047D01*
X114954819Y-103119047D02*
X114954819Y-103214285D01*
X114954819Y-103214285D02*
X114907200Y-103357142D01*
X114907200Y-103357142D02*
X114811961Y-103452380D01*
X114811961Y-103452380D02*
X114716723Y-103499999D01*
X114716723Y-103499999D02*
X114526247Y-103547618D01*
X114526247Y-103547618D02*
X114383390Y-103547618D01*
X114383390Y-103547618D02*
X114192914Y-103499999D01*
X114192914Y-103499999D02*
X114097676Y-103452380D01*
X114097676Y-103452380D02*
X114002438Y-103357142D01*
X114002438Y-103357142D02*
X113954819Y-103214285D01*
X113954819Y-103214285D02*
X113954819Y-103119047D01*
X113954819Y-103119047D02*
X114002438Y-102976190D01*
X114002438Y-102976190D02*
X114050057Y-102928571D01*
D10*
X185785714Y-49409800D02*
X185928571Y-49457419D01*
X185928571Y-49457419D02*
X186166666Y-49457419D01*
X186166666Y-49457419D02*
X186261904Y-49409800D01*
X186261904Y-49409800D02*
X186309523Y-49362180D01*
X186309523Y-49362180D02*
X186357142Y-49266942D01*
X186357142Y-49266942D02*
X186357142Y-49171704D01*
X186357142Y-49171704D02*
X186309523Y-49076466D01*
X186309523Y-49076466D02*
X186261904Y-49028847D01*
X186261904Y-49028847D02*
X186166666Y-48981228D01*
X186166666Y-48981228D02*
X185976190Y-48933609D01*
X185976190Y-48933609D02*
X185880952Y-48885990D01*
X185880952Y-48885990D02*
X185833333Y-48838371D01*
X185833333Y-48838371D02*
X185785714Y-48743133D01*
X185785714Y-48743133D02*
X185785714Y-48647895D01*
X185785714Y-48647895D02*
X185833333Y-48552657D01*
X185833333Y-48552657D02*
X185880952Y-48505038D01*
X185880952Y-48505038D02*
X185976190Y-48457419D01*
X185976190Y-48457419D02*
X186214285Y-48457419D01*
X186214285Y-48457419D02*
X186357142Y-48505038D01*
X186785714Y-48933609D02*
X187119047Y-48933609D01*
X187261904Y-49457419D02*
X186785714Y-49457419D01*
X186785714Y-49457419D02*
X186785714Y-48457419D01*
X186785714Y-48457419D02*
X187261904Y-48457419D01*
X188261904Y-49457419D02*
X187928571Y-48981228D01*
X187690476Y-49457419D02*
X187690476Y-48457419D01*
X187690476Y-48457419D02*
X188071428Y-48457419D01*
X188071428Y-48457419D02*
X188166666Y-48505038D01*
X188166666Y-48505038D02*
X188214285Y-48552657D01*
X188214285Y-48552657D02*
X188261904Y-48647895D01*
X188261904Y-48647895D02*
X188261904Y-48790752D01*
X188261904Y-48790752D02*
X188214285Y-48885990D01*
X188214285Y-48885990D02*
X188166666Y-48933609D01*
X188166666Y-48933609D02*
X188071428Y-48981228D01*
X188071428Y-48981228D02*
X187690476Y-48981228D01*
X188547619Y-48457419D02*
X188880952Y-49457419D01*
X188880952Y-49457419D02*
X189214285Y-48457419D01*
X189738095Y-48457419D02*
X189928571Y-48457419D01*
X189928571Y-48457419D02*
X190023809Y-48505038D01*
X190023809Y-48505038D02*
X190119047Y-48600276D01*
X190119047Y-48600276D02*
X190166666Y-48790752D01*
X190166666Y-48790752D02*
X190166666Y-49124085D01*
X190166666Y-49124085D02*
X190119047Y-49314561D01*
X190119047Y-49314561D02*
X190023809Y-49409800D01*
X190023809Y-49409800D02*
X189928571Y-49457419D01*
X189928571Y-49457419D02*
X189738095Y-49457419D01*
X189738095Y-49457419D02*
X189642857Y-49409800D01*
X189642857Y-49409800D02*
X189547619Y-49314561D01*
X189547619Y-49314561D02*
X189500000Y-49124085D01*
X189500000Y-49124085D02*
X189500000Y-48790752D01*
X189500000Y-48790752D02*
X189547619Y-48600276D01*
X189547619Y-48600276D02*
X189642857Y-48505038D01*
X189642857Y-48505038D02*
X189738095Y-48457419D01*
X190357143Y-49552657D02*
X191119047Y-49552657D01*
X191357143Y-49457419D02*
X191357143Y-48457419D01*
X191357143Y-48457419D02*
X191738095Y-48457419D01*
X191738095Y-48457419D02*
X191833333Y-48505038D01*
X191833333Y-48505038D02*
X191880952Y-48552657D01*
X191880952Y-48552657D02*
X191928571Y-48647895D01*
X191928571Y-48647895D02*
X191928571Y-48790752D01*
X191928571Y-48790752D02*
X191880952Y-48885990D01*
X191880952Y-48885990D02*
X191833333Y-48933609D01*
X191833333Y-48933609D02*
X191738095Y-48981228D01*
X191738095Y-48981228D02*
X191357143Y-48981228D01*
X192261905Y-48457419D02*
X192500000Y-49457419D01*
X192500000Y-49457419D02*
X192690476Y-48743133D01*
X192690476Y-48743133D02*
X192880952Y-49457419D01*
X192880952Y-49457419D02*
X193119048Y-48457419D01*
X193500000Y-49457419D02*
X193500000Y-48457419D01*
X193500000Y-48457419D02*
X193833333Y-49171704D01*
X193833333Y-49171704D02*
X194166666Y-48457419D01*
X194166666Y-48457419D02*
X194166666Y-49457419D01*
D11*
X117280057Y-60425238D02*
X117232438Y-60520476D01*
X117232438Y-60520476D02*
X117137200Y-60615714D01*
X117137200Y-60615714D02*
X116994342Y-60758571D01*
X116994342Y-60758571D02*
X116946723Y-60853809D01*
X116946723Y-60853809D02*
X116946723Y-60949047D01*
X117184819Y-60901428D02*
X117137200Y-60996666D01*
X117137200Y-60996666D02*
X117041961Y-61091904D01*
X117041961Y-61091904D02*
X116851485Y-61139523D01*
X116851485Y-61139523D02*
X116518152Y-61139523D01*
X116518152Y-61139523D02*
X116327676Y-61091904D01*
X116327676Y-61091904D02*
X116232438Y-60996666D01*
X116232438Y-60996666D02*
X116184819Y-60901428D01*
X116184819Y-60901428D02*
X116184819Y-60710952D01*
X116184819Y-60710952D02*
X116232438Y-60615714D01*
X116232438Y-60615714D02*
X116327676Y-60520476D01*
X116327676Y-60520476D02*
X116518152Y-60472857D01*
X116518152Y-60472857D02*
X116851485Y-60472857D01*
X116851485Y-60472857D02*
X117041961Y-60520476D01*
X117041961Y-60520476D02*
X117137200Y-60615714D01*
X117137200Y-60615714D02*
X117184819Y-60710952D01*
X117184819Y-60710952D02*
X117184819Y-60901428D01*
X117184819Y-59520476D02*
X117184819Y-60091904D01*
X117184819Y-59806190D02*
X116184819Y-59806190D01*
X116184819Y-59806190D02*
X116327676Y-59901428D01*
X116327676Y-59901428D02*
X116422914Y-59996666D01*
X116422914Y-59996666D02*
X116470533Y-60091904D01*
X216558092Y-131609579D02*
X216510473Y-131657199D01*
X216510473Y-131657199D02*
X216367616Y-131704818D01*
X216367616Y-131704818D02*
X216272378Y-131704818D01*
X216272378Y-131704818D02*
X216129521Y-131657199D01*
X216129521Y-131657199D02*
X216034283Y-131561960D01*
X216034283Y-131561960D02*
X215986664Y-131466722D01*
X215986664Y-131466722D02*
X215939045Y-131276246D01*
X215939045Y-131276246D02*
X215939045Y-131133389D01*
X215939045Y-131133389D02*
X215986664Y-130942913D01*
X215986664Y-130942913D02*
X216034283Y-130847675D01*
X216034283Y-130847675D02*
X216129521Y-130752437D01*
X216129521Y-130752437D02*
X216272378Y-130704818D01*
X216272378Y-130704818D02*
X216367616Y-130704818D01*
X216367616Y-130704818D02*
X216510473Y-130752437D01*
X216510473Y-130752437D02*
X216558092Y-130800056D01*
X216891426Y-130704818D02*
X217510473Y-130704818D01*
X217510473Y-130704818D02*
X217177140Y-131085770D01*
X217177140Y-131085770D02*
X217319997Y-131085770D01*
X217319997Y-131085770D02*
X217415235Y-131133389D01*
X217415235Y-131133389D02*
X217462854Y-131181008D01*
X217462854Y-131181008D02*
X217510473Y-131276246D01*
X217510473Y-131276246D02*
X217510473Y-131514341D01*
X217510473Y-131514341D02*
X217462854Y-131609579D01*
X217462854Y-131609579D02*
X217415235Y-131657199D01*
X217415235Y-131657199D02*
X217319997Y-131704818D01*
X217319997Y-131704818D02*
X217034283Y-131704818D01*
X217034283Y-131704818D02*
X216939045Y-131657199D01*
X216939045Y-131657199D02*
X216891426Y-131609579D01*
D13*
%TO.C,R3*%
X175765000Y-74972936D02*
X175765000Y-75427064D01*
X177235000Y-74972936D02*
X177235000Y-75427064D01*
%TO.C,J2*%
X93540000Y-57770000D02*
X93540000Y-63890000D01*
X93540000Y-60330000D02*
X97900000Y-60330000D01*
X93540000Y-63890000D02*
X101360000Y-63890000D01*
X95800000Y-58530000D02*
X95800000Y-59530000D01*
X95800000Y-59030000D02*
X93540000Y-59030000D01*
X95800000Y-59530000D02*
X93540000Y-59530000D01*
X95800000Y-59530000D02*
X97400000Y-59530000D01*
X95800000Y-62130000D02*
X97400000Y-62130000D01*
X95800000Y-63130000D02*
X95800000Y-62130000D01*
X97400000Y-58530000D02*
X95800000Y-58530000D01*
X97400000Y-59530000D02*
X97400000Y-58530000D01*
X97400000Y-62130000D02*
X97400000Y-63130000D01*
X97400000Y-63130000D02*
X95800000Y-63130000D01*
X97900000Y-60330000D02*
X97900000Y-61330000D01*
X97900000Y-61330000D02*
X93540000Y-61330000D01*
X99760000Y-57770000D02*
X99760000Y-58690000D01*
X99760000Y-58690000D02*
X101360000Y-58690000D01*
X99760000Y-58970000D02*
X99760000Y-58690000D01*
X99760000Y-58970000D02*
X100975000Y-58970000D01*
X99760000Y-62970000D02*
X99760000Y-62690000D01*
X99760000Y-63890000D02*
X99760000Y-62970000D01*
X101360000Y-57770000D02*
X93540000Y-57770000D01*
X101360000Y-58690000D02*
X101360000Y-57770000D01*
X101360000Y-62970000D02*
X99760000Y-62970000D01*
X101360000Y-63890000D02*
X101360000Y-62970000D01*
D14*
%TO.C,J11*%
X151000000Y-128300000D02*
X152850000Y-128300000D01*
X151000000Y-142700000D02*
X151000000Y-128300000D01*
X158050000Y-128300000D02*
X160000000Y-128300000D01*
X160000000Y-128300000D02*
X160000000Y-129450000D01*
X160000000Y-134550000D02*
X160000000Y-142700000D01*
X160000000Y-142700000D02*
X151000000Y-142700000D01*
D15*
X155700000Y-127000000D02*
G75*
G02*
X155300000Y-127000000I-200000J0D01*
G01*
X155300000Y-127000000D02*
G75*
G02*
X155700000Y-127000000I200000J0D01*
G01*
D13*
%TO.C,W_LV_SENSOR*%
X156440000Y-39590000D02*
X156440000Y-47410000D01*
X156440000Y-45810000D02*
X157360000Y-45810000D01*
X156440000Y-47410000D02*
X157360000Y-47410000D01*
X157200000Y-41850000D02*
X158200000Y-41850000D01*
X157200000Y-43450000D02*
X157200000Y-41850000D01*
X157360000Y-45810000D02*
X157640000Y-45810000D01*
X157360000Y-47410000D02*
X157360000Y-45810000D01*
X158200000Y-41850000D02*
X158200000Y-43450000D01*
X158200000Y-43450000D02*
X157200000Y-43450000D01*
X159000000Y-43950000D02*
X159000000Y-39590000D01*
X164000000Y-39590000D02*
X164000000Y-43950000D01*
X164000000Y-43950000D02*
X159000000Y-43950000D01*
X164800000Y-41850000D02*
X164800000Y-39590000D01*
X164800000Y-41850000D02*
X164800000Y-43450000D01*
X164800000Y-43450000D02*
X165800000Y-43450000D01*
X165300000Y-41850000D02*
X165300000Y-39590000D01*
X165360000Y-45810000D02*
X165360000Y-47025000D01*
X165360000Y-45810000D02*
X165640000Y-45810000D01*
X165640000Y-45810000D02*
X165640000Y-47410000D01*
X165640000Y-47410000D02*
X166560000Y-47410000D01*
X165800000Y-41850000D02*
X164800000Y-41850000D01*
X165800000Y-43450000D02*
X165800000Y-41850000D01*
X166560000Y-39590000D02*
X156440000Y-39590000D01*
X166560000Y-45810000D02*
X165640000Y-45810000D01*
X166560000Y-47410000D02*
X166560000Y-39590000D01*
%TO.C,C5*%
X186249759Y-54661000D02*
X186879759Y-54661000D01*
X186564759Y-54346000D02*
X186564759Y-54976000D01*
X189750000Y-53270000D02*
X189750000Y-59730000D01*
X189790000Y-53270000D02*
X189790000Y-59730000D01*
X189830000Y-53270000D02*
X189830000Y-59730000D01*
X189870000Y-53272000D02*
X189870000Y-59728000D01*
X189910000Y-53273000D02*
X189910000Y-59727000D01*
X189950000Y-53276000D02*
X189950000Y-59724000D01*
X189990000Y-53278000D02*
X189990000Y-55460000D01*
X189990000Y-57540000D02*
X189990000Y-59722000D01*
X190030000Y-53282000D02*
X190030000Y-55460000D01*
X190030000Y-57540000D02*
X190030000Y-59718000D01*
X190070000Y-53285000D02*
X190070000Y-55460000D01*
X190070000Y-57540000D02*
X190070000Y-59715000D01*
X190110000Y-53289000D02*
X190110000Y-55460000D01*
X190110000Y-57540000D02*
X190110000Y-59711000D01*
X190150000Y-53294000D02*
X190150000Y-55460000D01*
X190150000Y-57540000D02*
X190150000Y-59706000D01*
X190190000Y-53299000D02*
X190190000Y-55460000D01*
X190190000Y-57540000D02*
X190190000Y-59701000D01*
X190230000Y-53305000D02*
X190230000Y-55460000D01*
X190230000Y-57540000D02*
X190230000Y-59695000D01*
X190270000Y-53311000D02*
X190270000Y-55460000D01*
X190270000Y-57540000D02*
X190270000Y-59689000D01*
X190310000Y-53318000D02*
X190310000Y-55460000D01*
X190310000Y-57540000D02*
X190310000Y-59682000D01*
X190350000Y-53325000D02*
X190350000Y-55460000D01*
X190350000Y-57540000D02*
X190350000Y-59675000D01*
X190390000Y-53333000D02*
X190390000Y-55460000D01*
X190390000Y-57540000D02*
X190390000Y-59667000D01*
X190430000Y-53341000D02*
X190430000Y-55460000D01*
X190430000Y-57540000D02*
X190430000Y-59659000D01*
X190471000Y-53350000D02*
X190471000Y-55460000D01*
X190471000Y-57540000D02*
X190471000Y-59650000D01*
X190511000Y-53359000D02*
X190511000Y-55460000D01*
X190511000Y-57540000D02*
X190511000Y-59641000D01*
X190551000Y-53369000D02*
X190551000Y-55460000D01*
X190551000Y-57540000D02*
X190551000Y-59631000D01*
X190591000Y-53379000D02*
X190591000Y-55460000D01*
X190591000Y-57540000D02*
X190591000Y-59621000D01*
X190631000Y-53390000D02*
X190631000Y-55460000D01*
X190631000Y-57540000D02*
X190631000Y-59610000D01*
X190671000Y-53402000D02*
X190671000Y-55460000D01*
X190671000Y-57540000D02*
X190671000Y-59598000D01*
X190711000Y-53414000D02*
X190711000Y-55460000D01*
X190711000Y-57540000D02*
X190711000Y-59586000D01*
X190751000Y-53426000D02*
X190751000Y-55460000D01*
X190751000Y-57540000D02*
X190751000Y-59574000D01*
X190791000Y-53439000D02*
X190791000Y-55460000D01*
X190791000Y-57540000D02*
X190791000Y-59561000D01*
X190831000Y-53453000D02*
X190831000Y-55460000D01*
X190831000Y-57540000D02*
X190831000Y-59547000D01*
X190871000Y-53467000D02*
X190871000Y-55460000D01*
X190871000Y-57540000D02*
X190871000Y-59533000D01*
X190911000Y-53482000D02*
X190911000Y-55460000D01*
X190911000Y-57540000D02*
X190911000Y-59518000D01*
X190951000Y-53498000D02*
X190951000Y-55460000D01*
X190951000Y-57540000D02*
X190951000Y-59502000D01*
X190991000Y-53514000D02*
X190991000Y-55460000D01*
X190991000Y-57540000D02*
X190991000Y-59486000D01*
X191031000Y-53530000D02*
X191031000Y-55460000D01*
X191031000Y-57540000D02*
X191031000Y-59470000D01*
X191071000Y-53548000D02*
X191071000Y-55460000D01*
X191071000Y-57540000D02*
X191071000Y-59452000D01*
X191111000Y-53566000D02*
X191111000Y-55460000D01*
X191111000Y-57540000D02*
X191111000Y-59434000D01*
X191151000Y-53584000D02*
X191151000Y-55460000D01*
X191151000Y-57540000D02*
X191151000Y-59416000D01*
X191191000Y-53604000D02*
X191191000Y-55460000D01*
X191191000Y-57540000D02*
X191191000Y-59396000D01*
X191231000Y-53624000D02*
X191231000Y-55460000D01*
X191231000Y-57540000D02*
X191231000Y-59376000D01*
X191271000Y-53644000D02*
X191271000Y-55460000D01*
X191271000Y-57540000D02*
X191271000Y-59356000D01*
X191311000Y-53666000D02*
X191311000Y-55460000D01*
X191311000Y-57540000D02*
X191311000Y-59334000D01*
X191351000Y-53688000D02*
X191351000Y-55460000D01*
X191351000Y-57540000D02*
X191351000Y-59312000D01*
X191391000Y-53710000D02*
X191391000Y-55460000D01*
X191391000Y-57540000D02*
X191391000Y-59290000D01*
X191431000Y-53734000D02*
X191431000Y-55460000D01*
X191431000Y-57540000D02*
X191431000Y-59266000D01*
X191471000Y-53758000D02*
X191471000Y-55460000D01*
X191471000Y-57540000D02*
X191471000Y-59242000D01*
X191511000Y-53784000D02*
X191511000Y-55460000D01*
X191511000Y-57540000D02*
X191511000Y-59216000D01*
X191551000Y-53810000D02*
X191551000Y-55460000D01*
X191551000Y-57540000D02*
X191551000Y-59190000D01*
X191591000Y-53836000D02*
X191591000Y-55460000D01*
X191591000Y-57540000D02*
X191591000Y-59164000D01*
X191631000Y-53864000D02*
X191631000Y-55460000D01*
X191631000Y-57540000D02*
X191631000Y-59136000D01*
X191671000Y-53893000D02*
X191671000Y-55460000D01*
X191671000Y-57540000D02*
X191671000Y-59107000D01*
X191711000Y-53922000D02*
X191711000Y-55460000D01*
X191711000Y-57540000D02*
X191711000Y-59078000D01*
X191751000Y-53952000D02*
X191751000Y-55460000D01*
X191751000Y-57540000D02*
X191751000Y-59048000D01*
X191791000Y-53984000D02*
X191791000Y-55460000D01*
X191791000Y-57540000D02*
X191791000Y-59016000D01*
X191831000Y-54016000D02*
X191831000Y-55460000D01*
X191831000Y-57540000D02*
X191831000Y-58984000D01*
X191871000Y-54050000D02*
X191871000Y-55460000D01*
X191871000Y-57540000D02*
X191871000Y-58950000D01*
X191911000Y-54084000D02*
X191911000Y-55460000D01*
X191911000Y-57540000D02*
X191911000Y-58916000D01*
X191951000Y-54120000D02*
X191951000Y-55460000D01*
X191951000Y-57540000D02*
X191951000Y-58880000D01*
X191991000Y-54157000D02*
X191991000Y-55460000D01*
X191991000Y-57540000D02*
X191991000Y-58843000D01*
X192031000Y-54195000D02*
X192031000Y-55460000D01*
X192031000Y-57540000D02*
X192031000Y-58805000D01*
X192071000Y-54235000D02*
X192071000Y-58765000D01*
X192111000Y-54276000D02*
X192111000Y-58724000D01*
X192151000Y-54318000D02*
X192151000Y-58682000D01*
X192191000Y-54363000D02*
X192191000Y-58637000D01*
X192231000Y-54408000D02*
X192231000Y-58592000D01*
X192271000Y-54456000D02*
X192271000Y-58544000D01*
X192311000Y-54505000D02*
X192311000Y-58495000D01*
X192351000Y-54556000D02*
X192351000Y-58444000D01*
X192391000Y-54610000D02*
X192391000Y-58390000D01*
X192431000Y-54666000D02*
X192431000Y-58334000D01*
X192471000Y-54724000D02*
X192471000Y-58276000D01*
X192511000Y-54786000D02*
X192511000Y-58214000D01*
X192551000Y-54850000D02*
X192551000Y-58150000D01*
X192591000Y-54919000D02*
X192591000Y-58081000D01*
X192631000Y-54991000D02*
X192631000Y-58009000D01*
X192671000Y-55068000D02*
X192671000Y-57932000D01*
X192711000Y-55150000D02*
X192711000Y-57850000D01*
X192751000Y-55238000D02*
X192751000Y-57762000D01*
X192791000Y-55335000D02*
X192791000Y-57665000D01*
X192831000Y-55441000D02*
X192831000Y-57559000D01*
X192871000Y-55560000D02*
X192871000Y-57440000D01*
X192911000Y-55698000D02*
X192911000Y-57302000D01*
X192951000Y-55867000D02*
X192951000Y-57133000D01*
X192991000Y-56098000D02*
X192991000Y-56902000D01*
X193020000Y-56500000D02*
G75*
G02*
X186480000Y-56500000I-3270000J0D01*
G01*
X186480000Y-56500000D02*
G75*
G02*
X193020000Y-56500000I3270000J0D01*
G01*
%TO.C,STP_MTR*%
X204050000Y-134590000D02*
X204050000Y-142410000D01*
X204050000Y-136190000D02*
X204970000Y-136190000D01*
X204050000Y-142410000D02*
X214170000Y-142410000D01*
X204810000Y-138550000D02*
X204810000Y-140150000D01*
X204810000Y-140150000D02*
X205810000Y-140150000D01*
X204970000Y-134590000D02*
X204050000Y-134590000D01*
X204970000Y-136190000D02*
X204970000Y-134590000D01*
X205250000Y-136190000D02*
X204970000Y-136190000D01*
X205250000Y-136190000D02*
X205250000Y-134975000D01*
X205310000Y-140150000D02*
X205310000Y-142410000D01*
X205810000Y-138550000D02*
X204810000Y-138550000D01*
X205810000Y-140150000D02*
X205810000Y-138550000D01*
X205810000Y-140150000D02*
X205810000Y-142410000D01*
X206610000Y-138050000D02*
X211610000Y-138050000D01*
X206610000Y-142410000D02*
X206610000Y-138050000D01*
X211610000Y-138050000D02*
X211610000Y-142410000D01*
X212410000Y-138550000D02*
X213410000Y-138550000D01*
X212410000Y-140150000D02*
X212410000Y-138550000D01*
X213250000Y-134590000D02*
X213250000Y-136190000D01*
X213250000Y-136190000D02*
X212970000Y-136190000D01*
X213410000Y-138550000D02*
X213410000Y-140150000D01*
X213410000Y-140150000D02*
X212410000Y-140150000D01*
X214170000Y-134590000D02*
X213250000Y-134590000D01*
X214170000Y-136190000D02*
X213250000Y-136190000D01*
X214170000Y-142410000D02*
X214170000Y-134590000D01*
%TO.C,Q2*%
X117730000Y-70210000D02*
X122371000Y-70210000D01*
X117730000Y-73479000D02*
X119240000Y-73479000D01*
X117730000Y-77180000D02*
X119240000Y-77180000D01*
X117730000Y-80450000D02*
X117730000Y-70210000D01*
X117730000Y-80450000D02*
X122371000Y-80450000D01*
X119240000Y-80450000D02*
X119240000Y-70210000D01*
X122371000Y-80450000D02*
X122371000Y-70210000D01*
%TO.C,R4*%
X170965000Y-73727064D02*
X170965000Y-73272936D01*
X172435000Y-73727064D02*
X172435000Y-73272936D01*
D11*
%TO.C,A1*%
X130830000Y-54709881D02*
X130830000Y-120749881D01*
X130830000Y-120749881D02*
X132100000Y-120749881D01*
X132100000Y-120749881D02*
X134640000Y-123289881D01*
X134640000Y-123289881D02*
X168930000Y-123289881D01*
X168930000Y-123289881D02*
X171470000Y-120749881D01*
X171470000Y-120749881D02*
X182646000Y-120749881D01*
X184170000Y-54709881D02*
X130830000Y-54709881D01*
X184170000Y-54709881D02*
X184170000Y-119225881D01*
X184170000Y-119225881D02*
X182646000Y-120749881D01*
D13*
%TO.C,C4*%
X198051380Y-127252000D02*
X198051380Y-126448000D01*
X198091380Y-127483000D02*
X198091380Y-126217000D01*
X198131380Y-127652000D02*
X198131380Y-126048000D01*
X198171380Y-127790000D02*
X198171380Y-125910000D01*
X198211380Y-127909000D02*
X198211380Y-125791000D01*
X198251380Y-128015000D02*
X198251380Y-125685000D01*
X198291380Y-128112000D02*
X198291380Y-125588000D01*
X198331380Y-128200000D02*
X198331380Y-125500000D01*
X198371380Y-128282000D02*
X198371380Y-125418000D01*
X198411380Y-128359000D02*
X198411380Y-125341000D01*
X198451380Y-128431000D02*
X198451380Y-125269000D01*
X198491380Y-128500000D02*
X198491380Y-125200000D01*
X198531380Y-128564000D02*
X198531380Y-125136000D01*
X198571380Y-128626000D02*
X198571380Y-125074000D01*
X198611380Y-128684000D02*
X198611380Y-125016000D01*
X198651380Y-128740000D02*
X198651380Y-124960000D01*
X198691380Y-128794000D02*
X198691380Y-124906000D01*
X198731380Y-128845000D02*
X198731380Y-124855000D01*
X198771380Y-128894000D02*
X198771380Y-124806000D01*
X198811380Y-128942000D02*
X198811380Y-124758000D01*
X198851380Y-128987000D02*
X198851380Y-124713000D01*
X198891380Y-129032000D02*
X198891380Y-124668000D01*
X198931380Y-129074000D02*
X198931380Y-124626000D01*
X198971380Y-129115000D02*
X198971380Y-124585000D01*
X199011380Y-125810000D02*
X199011380Y-124545000D01*
X199011380Y-129155000D02*
X199011380Y-127890000D01*
X199051380Y-125810000D02*
X199051380Y-124507000D01*
X199051380Y-129193000D02*
X199051380Y-127890000D01*
X199091380Y-125810000D02*
X199091380Y-124470000D01*
X199091380Y-129230000D02*
X199091380Y-127890000D01*
X199131380Y-125810000D02*
X199131380Y-124434000D01*
X199131380Y-129266000D02*
X199131380Y-127890000D01*
X199171380Y-125810000D02*
X199171380Y-124400000D01*
X199171380Y-129300000D02*
X199171380Y-127890000D01*
X199211380Y-125810000D02*
X199211380Y-124366000D01*
X199211380Y-129334000D02*
X199211380Y-127890000D01*
X199251380Y-125810000D02*
X199251380Y-124334000D01*
X199251380Y-129366000D02*
X199251380Y-127890000D01*
X199291380Y-125810000D02*
X199291380Y-124302000D01*
X199291380Y-129398000D02*
X199291380Y-127890000D01*
X199331380Y-125810000D02*
X199331380Y-124272000D01*
X199331380Y-129428000D02*
X199331380Y-127890000D01*
X199371380Y-125810000D02*
X199371380Y-124243000D01*
X199371380Y-129457000D02*
X199371380Y-127890000D01*
X199411380Y-125810000D02*
X199411380Y-124214000D01*
X199411380Y-129486000D02*
X199411380Y-127890000D01*
X199451380Y-125810000D02*
X199451380Y-124186000D01*
X199451380Y-129514000D02*
X199451380Y-127890000D01*
X199491380Y-125810000D02*
X199491380Y-124160000D01*
X199491380Y-129540000D02*
X199491380Y-127890000D01*
X199531380Y-125810000D02*
X199531380Y-124134000D01*
X199531380Y-129566000D02*
X199531380Y-127890000D01*
X199571380Y-125810000D02*
X199571380Y-124108000D01*
X199571380Y-129592000D02*
X199571380Y-127890000D01*
X199611380Y-125810000D02*
X199611380Y-124084000D01*
X199611380Y-129616000D02*
X199611380Y-127890000D01*
X199651380Y-125810000D02*
X199651380Y-124060000D01*
X199651380Y-129640000D02*
X199651380Y-127890000D01*
X199691380Y-125810000D02*
X199691380Y-124038000D01*
X199691380Y-129662000D02*
X199691380Y-127890000D01*
X199731380Y-125810000D02*
X199731380Y-124016000D01*
X199731380Y-129684000D02*
X199731380Y-127890000D01*
X199771380Y-125810000D02*
X199771380Y-123994000D01*
X199771380Y-129706000D02*
X199771380Y-127890000D01*
X199811380Y-125810000D02*
X199811380Y-123974000D01*
X199811380Y-129726000D02*
X199811380Y-127890000D01*
X199851380Y-125810000D02*
X199851380Y-123954000D01*
X199851380Y-129746000D02*
X199851380Y-127890000D01*
X199891380Y-125810000D02*
X199891380Y-123934000D01*
X199891380Y-129766000D02*
X199891380Y-127890000D01*
X199931380Y-125810000D02*
X199931380Y-123916000D01*
X199931380Y-129784000D02*
X199931380Y-127890000D01*
X199971380Y-125810000D02*
X199971380Y-123898000D01*
X199971380Y-129802000D02*
X199971380Y-127890000D01*
X200011380Y-125810000D02*
X200011380Y-123880000D01*
X200011380Y-129820000D02*
X200011380Y-127890000D01*
X200051380Y-125810000D02*
X200051380Y-123864000D01*
X200051380Y-129836000D02*
X200051380Y-127890000D01*
X200091380Y-125810000D02*
X200091380Y-123848000D01*
X200091380Y-129852000D02*
X200091380Y-127890000D01*
X200131380Y-125810000D02*
X200131380Y-123832000D01*
X200131380Y-129868000D02*
X200131380Y-127890000D01*
X200171380Y-125810000D02*
X200171380Y-123817000D01*
X200171380Y-129883000D02*
X200171380Y-127890000D01*
X200211380Y-125810000D02*
X200211380Y-123803000D01*
X200211380Y-129897000D02*
X200211380Y-127890000D01*
X200251380Y-125810000D02*
X200251380Y-123789000D01*
X200251380Y-129911000D02*
X200251380Y-127890000D01*
X200291380Y-125810000D02*
X200291380Y-123776000D01*
X200291380Y-129924000D02*
X200291380Y-127890000D01*
X200331380Y-125810000D02*
X200331380Y-123764000D01*
X200331380Y-129936000D02*
X200331380Y-127890000D01*
X200371380Y-125810000D02*
X200371380Y-123752000D01*
X200371380Y-129948000D02*
X200371380Y-127890000D01*
X200411380Y-125810000D02*
X200411380Y-123740000D01*
X200411380Y-129960000D02*
X200411380Y-127890000D01*
X200451380Y-125810000D02*
X200451380Y-123729000D01*
X200451380Y-129971000D02*
X200451380Y-127890000D01*
X200491380Y-125810000D02*
X200491380Y-123719000D01*
X200491380Y-129981000D02*
X200491380Y-127890000D01*
X200531380Y-125810000D02*
X200531380Y-123709000D01*
X200531380Y-129991000D02*
X200531380Y-127890000D01*
X200571380Y-125810000D02*
X200571380Y-123700000D01*
X200571380Y-130000000D02*
X200571380Y-127890000D01*
X200612380Y-125810000D02*
X200612380Y-123691000D01*
X200612380Y-130009000D02*
X200612380Y-127890000D01*
X200652380Y-125810000D02*
X200652380Y-123683000D01*
X200652380Y-130017000D02*
X200652380Y-127890000D01*
X200692380Y-125810000D02*
X200692380Y-123675000D01*
X200692380Y-130025000D02*
X200692380Y-127890000D01*
X200732380Y-125810000D02*
X200732380Y-123668000D01*
X200732380Y-130032000D02*
X200732380Y-127890000D01*
X200772380Y-125810000D02*
X200772380Y-123661000D01*
X200772380Y-130039000D02*
X200772380Y-127890000D01*
X200812380Y-125810000D02*
X200812380Y-123655000D01*
X200812380Y-130045000D02*
X200812380Y-127890000D01*
X200852380Y-125810000D02*
X200852380Y-123649000D01*
X200852380Y-130051000D02*
X200852380Y-127890000D01*
X200892380Y-125810000D02*
X200892380Y-123644000D01*
X200892380Y-130056000D02*
X200892380Y-127890000D01*
X200932380Y-125810000D02*
X200932380Y-123639000D01*
X200932380Y-130061000D02*
X200932380Y-127890000D01*
X200972380Y-125810000D02*
X200972380Y-123635000D01*
X200972380Y-130065000D02*
X200972380Y-127890000D01*
X201012380Y-125810000D02*
X201012380Y-123632000D01*
X201012380Y-130068000D02*
X201012380Y-127890000D01*
X201052380Y-125810000D02*
X201052380Y-123628000D01*
X201052380Y-130072000D02*
X201052380Y-127890000D01*
X201092380Y-130074000D02*
X201092380Y-123626000D01*
X201132380Y-130077000D02*
X201132380Y-123623000D01*
X201172380Y-130078000D02*
X201172380Y-123622000D01*
X201212380Y-130080000D02*
X201212380Y-123620000D01*
X201252380Y-130080000D02*
X201252380Y-123620000D01*
X201292380Y-130080000D02*
X201292380Y-123620000D01*
X204477621Y-129004000D02*
X204477621Y-128374000D01*
X204792621Y-128689000D02*
X204162621Y-128689000D01*
X204562380Y-126850000D02*
G75*
G02*
X198022380Y-126850000I-3270000J0D01*
G01*
X198022380Y-126850000D02*
G75*
G02*
X204562380Y-126850000I3270000J0D01*
G01*
%TO.C,D2*%
X111030000Y-72860000D02*
X111030000Y-78300000D01*
X111030000Y-78300000D02*
X113970000Y-78300000D01*
X112500000Y-71840000D02*
X112500000Y-72860000D01*
X112500000Y-79320000D02*
X112500000Y-78300000D01*
X113970000Y-72860000D02*
X111030000Y-72860000D01*
X113970000Y-73640000D02*
X111030000Y-73640000D01*
X113970000Y-73760000D02*
X111030000Y-73760000D01*
X113970000Y-73880000D02*
X111030000Y-73880000D01*
X113970000Y-78300000D02*
X113970000Y-72860000D01*
%TO.C,R2*%
X126515000Y-79057064D02*
X126515000Y-78602936D01*
X127985000Y-79057064D02*
X127985000Y-78602936D01*
%TO.C,R1*%
X126515000Y-64057064D02*
X126515000Y-63602936D01*
X127985000Y-64057064D02*
X127985000Y-63602936D01*
%TO.C,U2*%
X198275000Y-55405000D02*
X198275000Y-99155000D01*
X198275000Y-99155000D02*
X219725000Y-99155000D01*
X198530000Y-58540000D02*
X198530000Y-55425000D01*
X198530000Y-99150000D02*
X198530000Y-97850000D01*
X201380000Y-96020000D02*
X201690000Y-96020000D01*
X201685000Y-99150000D02*
X201690000Y-96020000D01*
X201690000Y-58540000D02*
X198530000Y-58540000D01*
X201690000Y-58540000D02*
X201690000Y-55380000D01*
X216310000Y-58540000D02*
X216310000Y-55425000D01*
X216310000Y-96020000D02*
X219470000Y-96020000D01*
X216310000Y-99150000D02*
X216310000Y-96020000D01*
X219470000Y-58540000D02*
X216310000Y-58540000D01*
X219470000Y-58540000D02*
X219470000Y-55425000D01*
X219470000Y-99150000D02*
X219470000Y-96020000D01*
X219725000Y-55405000D02*
X198275000Y-55405000D01*
X219725000Y-99155000D02*
X219725000Y-55405000D01*
%TO.C,DHT-11*%
X215940000Y-39590000D02*
X215940000Y-47410000D01*
X215940000Y-45810000D02*
X216860000Y-45810000D01*
X215940000Y-47410000D02*
X216860000Y-47410000D01*
X216700000Y-41850000D02*
X217700000Y-41850000D01*
X216700000Y-43450000D02*
X216700000Y-41850000D01*
X216860000Y-45810000D02*
X217140000Y-45810000D01*
X216860000Y-47410000D02*
X216860000Y-45810000D01*
X217700000Y-41850000D02*
X217700000Y-43450000D01*
X217700000Y-43450000D02*
X216700000Y-43450000D01*
X218500000Y-43950000D02*
X218500000Y-39590000D01*
X221500000Y-39590000D02*
X221500000Y-43950000D01*
X221500000Y-43950000D02*
X218500000Y-43950000D01*
X222300000Y-41850000D02*
X222300000Y-39590000D01*
X222300000Y-41850000D02*
X222300000Y-43450000D01*
X222300000Y-43450000D02*
X223300000Y-43450000D01*
X222800000Y-41850000D02*
X222800000Y-39590000D01*
X222860000Y-45810000D02*
X222860000Y-47025000D01*
X222860000Y-45810000D02*
X223140000Y-45810000D01*
X223140000Y-45810000D02*
X223140000Y-47410000D01*
X223140000Y-47410000D02*
X224060000Y-47410000D01*
X223300000Y-41850000D02*
X222300000Y-41850000D01*
X223300000Y-43450000D02*
X223300000Y-41850000D01*
X224060000Y-39590000D02*
X215940000Y-39590000D01*
X224060000Y-45810000D02*
X223140000Y-45810000D01*
X224060000Y-47410000D02*
X224060000Y-39590000D01*
%TO.C,ULT_SENSOR*%
X199940000Y-39590000D02*
X199940000Y-47410000D01*
X199940000Y-45810000D02*
X200860000Y-45810000D01*
X199940000Y-47410000D02*
X200860000Y-47410000D01*
X200700000Y-41850000D02*
X201700000Y-41850000D01*
X200700000Y-43450000D02*
X200700000Y-41850000D01*
X200860000Y-45810000D02*
X201140000Y-45810000D01*
X200860000Y-47410000D02*
X200860000Y-45810000D01*
X201700000Y-41850000D02*
X201700000Y-43450000D01*
X201700000Y-43450000D02*
X200700000Y-43450000D01*
X202500000Y-43950000D02*
X202500000Y-39590000D01*
X207500000Y-39590000D02*
X207500000Y-43950000D01*
X207500000Y-43950000D02*
X202500000Y-43950000D01*
X208300000Y-41850000D02*
X208300000Y-39590000D01*
X208300000Y-41850000D02*
X208300000Y-43450000D01*
X208300000Y-43450000D02*
X209300000Y-43450000D01*
X208800000Y-41850000D02*
X208800000Y-39590000D01*
X208860000Y-45810000D02*
X208860000Y-47025000D01*
X208860000Y-45810000D02*
X209140000Y-45810000D01*
X209140000Y-45810000D02*
X209140000Y-47410000D01*
X209140000Y-47410000D02*
X210060000Y-47410000D01*
X209300000Y-41850000D02*
X208300000Y-41850000D01*
X209300000Y-43450000D02*
X209300000Y-41850000D01*
X210060000Y-39590000D02*
X199940000Y-39590000D01*
X210060000Y-45810000D02*
X209140000Y-45810000D01*
X210060000Y-47410000D02*
X210060000Y-39590000D01*
%TO.C,J10*%
X156420000Y-67390000D02*
X157750000Y-67390000D01*
X156420000Y-68500000D02*
X156420000Y-67390000D01*
X156420000Y-69960000D02*
X166700000Y-69960000D01*
X156420000Y-78590000D02*
X156420000Y-69960000D01*
X156420000Y-78590000D02*
X166700000Y-78590000D01*
X156540000Y-78590000D02*
X156540000Y-69960000D01*
X156658095Y-78590000D02*
X156658095Y-69960000D01*
X156776190Y-78590000D02*
X156776190Y-69960000D01*
X156894285Y-78590000D02*
X156894285Y-69960000D01*
X157012380Y-78590000D02*
X157012380Y-69960000D01*
X157130475Y-78590000D02*
X157130475Y-69960000D01*
X157248570Y-78590000D02*
X157248570Y-69960000D01*
X157366665Y-78590000D02*
X157366665Y-69960000D01*
X157390000Y-69960000D02*
X157390000Y-69610000D01*
X157484760Y-78590000D02*
X157484760Y-69960000D01*
X157602855Y-78590000D02*
X157602855Y-69960000D01*
X157720950Y-78590000D02*
X157720950Y-69960000D01*
X157839045Y-78590000D02*
X157839045Y-69960000D01*
X157957140Y-78590000D02*
X157957140Y-69960000D01*
X158075235Y-78590000D02*
X158075235Y-69960000D01*
X158110000Y-69960000D02*
X158110000Y-69610000D01*
X158193330Y-78590000D02*
X158193330Y-69960000D01*
X158311425Y-78590000D02*
X158311425Y-69960000D01*
X158429520Y-78590000D02*
X158429520Y-69960000D01*
X158547615Y-78590000D02*
X158547615Y-69960000D01*
X158665710Y-78590000D02*
X158665710Y-69960000D01*
X158783805Y-78590000D02*
X158783805Y-69960000D01*
X158901900Y-78590000D02*
X158901900Y-69960000D01*
X159020000Y-78590000D02*
X159020000Y-69960000D01*
X159930000Y-69960000D02*
X159930000Y-69550000D01*
X160650000Y-69960000D02*
X160650000Y-69550000D01*
X161560000Y-78590000D02*
X161560000Y-69960000D01*
X162470000Y-69960000D02*
X162470000Y-69550000D01*
X163190000Y-69960000D02*
X163190000Y-69550000D01*
X164100000Y-78590000D02*
X164100000Y-69960000D01*
X165010000Y-69960000D02*
X165010000Y-69550000D01*
X165730000Y-69960000D02*
X165730000Y-69550000D01*
X166700000Y-78590000D02*
X166700000Y-69960000D01*
%TO.C,D1*%
X111030000Y-58780000D02*
X111030000Y-64220000D01*
X111030000Y-64220000D02*
X113970000Y-64220000D01*
X112500000Y-57760000D02*
X112500000Y-58780000D01*
X112500000Y-65240000D02*
X112500000Y-64220000D01*
X113970000Y-58780000D02*
X111030000Y-58780000D01*
X113970000Y-59560000D02*
X111030000Y-59560000D01*
X113970000Y-59680000D02*
X111030000Y-59680000D01*
X113970000Y-59800000D02*
X111030000Y-59800000D01*
X113970000Y-64220000D02*
X113970000Y-58780000D01*
%TO.C,A2*%
X198710000Y-105240000D02*
X198710000Y-118070000D01*
X198710000Y-107910000D02*
X219290000Y-107910000D01*
X198710000Y-118070000D02*
X201380000Y-118070000D01*
X198710000Y-119340000D02*
X198710000Y-120740000D01*
X198710000Y-120740000D02*
X200110000Y-120740000D01*
X201380000Y-118070000D02*
X201380000Y-120740000D01*
X201380000Y-118070000D02*
X219290000Y-118070000D01*
X201380000Y-120740000D02*
X219290000Y-120740000D01*
X219290000Y-105240000D02*
X198710000Y-105240000D01*
X219290000Y-120740000D02*
X219290000Y-105240000D01*
%TO.C,WTR_PMP*%
X225590000Y-51940000D02*
X225590000Y-52860000D01*
X225590000Y-52860000D02*
X227190000Y-52860000D01*
X225590000Y-59140000D02*
X225590000Y-60060000D01*
X225590000Y-60060000D02*
X233410000Y-60060000D01*
X227190000Y-51940000D02*
X227190000Y-52860000D01*
X227190000Y-52860000D02*
X227190000Y-53140000D01*
X227190000Y-58860000D02*
X225975000Y-58860000D01*
X227190000Y-58860000D02*
X227190000Y-59140000D01*
X227190000Y-59140000D02*
X225590000Y-59140000D01*
X227190000Y-60060000D02*
X227190000Y-59140000D01*
X229050000Y-54500000D02*
X233410000Y-54500000D01*
X229050000Y-57500000D02*
X229050000Y-54500000D01*
X229550000Y-52700000D02*
X231150000Y-52700000D01*
X229550000Y-53700000D02*
X229550000Y-52700000D01*
X229550000Y-58300000D02*
X229550000Y-59300000D01*
X229550000Y-59300000D02*
X231150000Y-59300000D01*
X231150000Y-52700000D02*
X231150000Y-53700000D01*
X231150000Y-53700000D02*
X229550000Y-53700000D01*
X231150000Y-58300000D02*
X229550000Y-58300000D01*
X231150000Y-58300000D02*
X233410000Y-58300000D01*
X231150000Y-58800000D02*
X233410000Y-58800000D01*
X231150000Y-59300000D02*
X231150000Y-58300000D01*
X233410000Y-51940000D02*
X225590000Y-51940000D01*
X233410000Y-57500000D02*
X229050000Y-57500000D01*
X233410000Y-60060000D02*
X233410000Y-51940000D01*
%TO.C,U1*%
X103775000Y-86125000D02*
X103775000Y-129875000D01*
X103775000Y-129875000D02*
X125225000Y-129875000D01*
X104030000Y-89260000D02*
X104030000Y-86145000D01*
X104030000Y-129870000D02*
X104030000Y-128570000D01*
X106880000Y-126740000D02*
X107190000Y-126740000D01*
X107185000Y-129870000D02*
X107190000Y-126740000D01*
X107190000Y-89260000D02*
X104030000Y-89260000D01*
X107190000Y-89260000D02*
X107190000Y-86100000D01*
X121810000Y-89260000D02*
X121810000Y-86145000D01*
X121810000Y-126740000D02*
X124970000Y-126740000D01*
X121810000Y-129870000D02*
X121810000Y-126740000D01*
X124970000Y-89260000D02*
X121810000Y-89260000D01*
X124970000Y-89260000D02*
X124970000Y-86145000D01*
X124970000Y-129870000D02*
X124970000Y-126740000D01*
X125225000Y-86125000D02*
X103775000Y-86125000D01*
X125225000Y-129875000D02*
X125225000Y-86125000D01*
%TO.C,SERVO_PWM*%
X185940000Y-39590000D02*
X185940000Y-47410000D01*
X185940000Y-45810000D02*
X186860000Y-45810000D01*
X185940000Y-47410000D02*
X186860000Y-47410000D01*
X186700000Y-41850000D02*
X187700000Y-41850000D01*
X186700000Y-43450000D02*
X186700000Y-41850000D01*
X186860000Y-45810000D02*
X187140000Y-45810000D01*
X186860000Y-47410000D02*
X186860000Y-45810000D01*
X187700000Y-41850000D02*
X187700000Y-43450000D01*
X187700000Y-43450000D02*
X186700000Y-43450000D01*
X188500000Y-43950000D02*
X188500000Y-39590000D01*
X191500000Y-39590000D02*
X191500000Y-43950000D01*
X191500000Y-43950000D02*
X188500000Y-43950000D01*
X192300000Y-41850000D02*
X192300000Y-39590000D01*
X192300000Y-41850000D02*
X192300000Y-43450000D01*
X192300000Y-43450000D02*
X193300000Y-43450000D01*
X192800000Y-41850000D02*
X192800000Y-39590000D01*
X192860000Y-45810000D02*
X192860000Y-47025000D01*
X192860000Y-45810000D02*
X193140000Y-45810000D01*
X193140000Y-45810000D02*
X193140000Y-47410000D01*
X193140000Y-47410000D02*
X194060000Y-47410000D01*
X193300000Y-41850000D02*
X192300000Y-41850000D01*
X193300000Y-43450000D02*
X193300000Y-41850000D01*
X194060000Y-39590000D02*
X185940000Y-39590000D01*
X194060000Y-45810000D02*
X193140000Y-45810000D01*
X194060000Y-47410000D02*
X194060000Y-39590000D01*
%TO.C,Q1*%
X117730000Y-55210000D02*
X122371000Y-55210000D01*
X117730000Y-58479000D02*
X119240000Y-58479000D01*
X117730000Y-62180000D02*
X119240000Y-62180000D01*
X117730000Y-65450000D02*
X117730000Y-55210000D01*
X117730000Y-65450000D02*
X122371000Y-65450000D01*
X119240000Y-65450000D02*
X119240000Y-55210000D01*
X122371000Y-65450000D02*
X122371000Y-55210000D01*
%TO.C,C3*%
X213483759Y-127251999D02*
X213483759Y-126447999D01*
X213523759Y-127482999D02*
X213523759Y-126216999D01*
X213563759Y-127651999D02*
X213563759Y-126047999D01*
X213603759Y-127789999D02*
X213603759Y-125909999D01*
X213643759Y-127908999D02*
X213643759Y-125790999D01*
X213683759Y-128014999D02*
X213683759Y-125684999D01*
X213723759Y-128111999D02*
X213723759Y-125587999D01*
X213763759Y-128199999D02*
X213763759Y-125499999D01*
X213803759Y-128281999D02*
X213803759Y-125417999D01*
X213843759Y-128358999D02*
X213843759Y-125340999D01*
X213883759Y-128430999D02*
X213883759Y-125268999D01*
X213923759Y-128499999D02*
X213923759Y-125199999D01*
X213963759Y-128563999D02*
X213963759Y-125135999D01*
X214003759Y-128625999D02*
X214003759Y-125073999D01*
X214043759Y-128683999D02*
X214043759Y-125015999D01*
X214083759Y-128739999D02*
X214083759Y-124959999D01*
X214123759Y-128793999D02*
X214123759Y-124905999D01*
X214163759Y-128844999D02*
X214163759Y-124854999D01*
X214203759Y-128893999D02*
X214203759Y-124805999D01*
X214243759Y-128941999D02*
X214243759Y-124757999D01*
X214283759Y-128986999D02*
X214283759Y-124712999D01*
X214323759Y-129031999D02*
X214323759Y-124667999D01*
X214363759Y-129073999D02*
X214363759Y-124625999D01*
X214403759Y-129114999D02*
X214403759Y-124584999D01*
X214443759Y-125809999D02*
X214443759Y-124544999D01*
X214443759Y-129154999D02*
X214443759Y-127889999D01*
X214483759Y-125809999D02*
X214483759Y-124506999D01*
X214483759Y-129192999D02*
X214483759Y-127889999D01*
X214523759Y-125809999D02*
X214523759Y-124469999D01*
X214523759Y-129229999D02*
X214523759Y-127889999D01*
X214563759Y-125809999D02*
X214563759Y-124433999D01*
X214563759Y-129265999D02*
X214563759Y-127889999D01*
X214603759Y-125809999D02*
X214603759Y-124399999D01*
X214603759Y-129299999D02*
X214603759Y-127889999D01*
X214643759Y-125809999D02*
X214643759Y-124365999D01*
X214643759Y-129333999D02*
X214643759Y-127889999D01*
X214683759Y-125809999D02*
X214683759Y-124333999D01*
X214683759Y-129365999D02*
X214683759Y-127889999D01*
X214723759Y-125809999D02*
X214723759Y-124301999D01*
X214723759Y-129397999D02*
X214723759Y-127889999D01*
X214763759Y-125809999D02*
X214763759Y-124271999D01*
X214763759Y-129427999D02*
X214763759Y-127889999D01*
X214803759Y-125809999D02*
X214803759Y-124242999D01*
X214803759Y-129456999D02*
X214803759Y-127889999D01*
X214843759Y-125809999D02*
X214843759Y-124213999D01*
X214843759Y-129485999D02*
X214843759Y-127889999D01*
X214883759Y-125809999D02*
X214883759Y-124185999D01*
X214883759Y-129513999D02*
X214883759Y-127889999D01*
X214923759Y-125809999D02*
X214923759Y-124159999D01*
X214923759Y-129539999D02*
X214923759Y-127889999D01*
X214963759Y-125809999D02*
X214963759Y-124133999D01*
X214963759Y-129565999D02*
X214963759Y-127889999D01*
X215003759Y-125809999D02*
X215003759Y-124107999D01*
X215003759Y-129591999D02*
X215003759Y-127889999D01*
X215043759Y-125809999D02*
X215043759Y-124083999D01*
X215043759Y-129615999D02*
X215043759Y-127889999D01*
X215083759Y-125809999D02*
X215083759Y-124059999D01*
X215083759Y-129639999D02*
X215083759Y-127889999D01*
X215123759Y-125809999D02*
X215123759Y-124037999D01*
X215123759Y-129661999D02*
X215123759Y-127889999D01*
X215163759Y-125809999D02*
X215163759Y-124015999D01*
X215163759Y-129683999D02*
X215163759Y-127889999D01*
X215203759Y-125809999D02*
X215203759Y-123993999D01*
X215203759Y-129705999D02*
X215203759Y-127889999D01*
X215243759Y-125809999D02*
X215243759Y-123973999D01*
X215243759Y-129725999D02*
X215243759Y-127889999D01*
X215283759Y-125809999D02*
X215283759Y-123953999D01*
X215283759Y-129745999D02*
X215283759Y-127889999D01*
X215323759Y-125809999D02*
X215323759Y-123933999D01*
X215323759Y-129765999D02*
X215323759Y-127889999D01*
X215363759Y-125809999D02*
X215363759Y-123915999D01*
X215363759Y-129783999D02*
X215363759Y-127889999D01*
X215403759Y-125809999D02*
X215403759Y-123897999D01*
X215403759Y-129801999D02*
X215403759Y-127889999D01*
X215443759Y-125809999D02*
X215443759Y-123879999D01*
X215443759Y-129819999D02*
X215443759Y-127889999D01*
X215483759Y-125809999D02*
X215483759Y-123863999D01*
X215483759Y-129835999D02*
X215483759Y-127889999D01*
X215523759Y-125809999D02*
X215523759Y-123847999D01*
X215523759Y-129851999D02*
X215523759Y-127889999D01*
X215563759Y-125809999D02*
X215563759Y-123831999D01*
X215563759Y-129867999D02*
X215563759Y-127889999D01*
X215603759Y-125809999D02*
X215603759Y-123816999D01*
X215603759Y-129882999D02*
X215603759Y-127889999D01*
X215643759Y-125809999D02*
X215643759Y-123802999D01*
X215643759Y-129896999D02*
X215643759Y-127889999D01*
X215683759Y-125809999D02*
X215683759Y-123788999D01*
X215683759Y-129910999D02*
X215683759Y-127889999D01*
X215723759Y-125809999D02*
X215723759Y-123775999D01*
X215723759Y-129923999D02*
X215723759Y-127889999D01*
X215763759Y-125809999D02*
X215763759Y-123763999D01*
X215763759Y-129935999D02*
X215763759Y-127889999D01*
X215803759Y-125809999D02*
X215803759Y-123751999D01*
X215803759Y-129947999D02*
X215803759Y-127889999D01*
X215843759Y-125809999D02*
X215843759Y-123739999D01*
X215843759Y-129959999D02*
X215843759Y-127889999D01*
X215883759Y-125809999D02*
X215883759Y-123728999D01*
X215883759Y-129970999D02*
X215883759Y-127889999D01*
X215923759Y-125809999D02*
X215923759Y-123718999D01*
X215923759Y-129980999D02*
X215923759Y-127889999D01*
X215963759Y-125809999D02*
X215963759Y-123708999D01*
X215963759Y-129990999D02*
X215963759Y-127889999D01*
X216003759Y-125809999D02*
X216003759Y-123699999D01*
X216003759Y-129999999D02*
X216003759Y-127889999D01*
X216044759Y-125809999D02*
X216044759Y-123690999D01*
X216044759Y-130008999D02*
X216044759Y-127889999D01*
X216084759Y-125809999D02*
X216084759Y-123682999D01*
X216084759Y-130016999D02*
X216084759Y-127889999D01*
X216124759Y-125809999D02*
X216124759Y-123674999D01*
X216124759Y-130024999D02*
X216124759Y-127889999D01*
X216164759Y-125809999D02*
X216164759Y-123667999D01*
X216164759Y-130031999D02*
X216164759Y-127889999D01*
X216204759Y-125809999D02*
X216204759Y-123660999D01*
X216204759Y-130038999D02*
X216204759Y-127889999D01*
X216244759Y-125809999D02*
X216244759Y-123654999D01*
X216244759Y-130044999D02*
X216244759Y-127889999D01*
X216284759Y-125809999D02*
X216284759Y-123648999D01*
X216284759Y-130050999D02*
X216284759Y-127889999D01*
X216324759Y-125809999D02*
X216324759Y-123643999D01*
X216324759Y-130055999D02*
X216324759Y-127889999D01*
X216364759Y-125809999D02*
X216364759Y-123638999D01*
X216364759Y-130060999D02*
X216364759Y-127889999D01*
X216404759Y-125809999D02*
X216404759Y-123634999D01*
X216404759Y-130064999D02*
X216404759Y-127889999D01*
X216444759Y-125809999D02*
X216444759Y-123631999D01*
X216444759Y-130067999D02*
X216444759Y-127889999D01*
X216484759Y-125809999D02*
X216484759Y-123627999D01*
X216484759Y-130071999D02*
X216484759Y-127889999D01*
X216524759Y-130073999D02*
X216524759Y-123625999D01*
X216564759Y-130076999D02*
X216564759Y-123622999D01*
X216604759Y-130077999D02*
X216604759Y-123621999D01*
X216644759Y-130079999D02*
X216644759Y-123619999D01*
X216684759Y-130079999D02*
X216684759Y-123619999D01*
X216724759Y-130079999D02*
X216724759Y-123619999D01*
X219910000Y-129003999D02*
X219910000Y-128373999D01*
X220225000Y-128688999D02*
X219595000Y-128688999D01*
X219994759Y-126849999D02*
G75*
G02*
X213454759Y-126849999I-3270000J0D01*
G01*
X213454759Y-126849999D02*
G75*
G02*
X219994759Y-126849999I3270000J0D01*
G01*
%TO.C,J3*%
X93590000Y-72520000D02*
X93590000Y-78640000D01*
X93590000Y-75080000D02*
X97950000Y-75080000D01*
X93590000Y-78640000D02*
X101410000Y-78640000D01*
X95850000Y-73280000D02*
X95850000Y-74280000D01*
X95850000Y-73780000D02*
X93590000Y-73780000D01*
X95850000Y-74280000D02*
X93590000Y-74280000D01*
X95850000Y-74280000D02*
X97450000Y-74280000D01*
X95850000Y-76880000D02*
X97450000Y-76880000D01*
X95850000Y-77880000D02*
X95850000Y-76880000D01*
X97450000Y-73280000D02*
X95850000Y-73280000D01*
X97450000Y-74280000D02*
X97450000Y-73280000D01*
X97450000Y-76880000D02*
X97450000Y-77880000D01*
X97450000Y-77880000D02*
X95850000Y-77880000D01*
X97950000Y-75080000D02*
X97950000Y-76080000D01*
X97950000Y-76080000D02*
X93590000Y-76080000D01*
X99810000Y-72520000D02*
X99810000Y-73440000D01*
X99810000Y-73440000D02*
X101410000Y-73440000D01*
X99810000Y-73720000D02*
X99810000Y-73440000D01*
X99810000Y-73720000D02*
X101025000Y-73720000D01*
X99810000Y-77720000D02*
X99810000Y-77440000D01*
X99810000Y-78640000D02*
X99810000Y-77720000D01*
X101410000Y-72520000D02*
X93590000Y-72520000D01*
X101410000Y-73440000D02*
X101410000Y-72520000D01*
X101410000Y-77720000D02*
X99810000Y-77720000D01*
X101410000Y-78640000D02*
X101410000Y-77720000D01*
%TD*%
M02*
