M48
; DRILL file {KiCad 8.0.0} date 2024-03-04T10:49:48+0700
; FORMAT={-:-/ absolute / metric / decimal}
; #@! TF.CreationDate,2024-03-04T10:49:48+07:00
; #@! TF.GenerationSoftware,Kicad,Pcbnew,8.0.0
; #@! TF.FileFunction,Plated,1,2,PTH
FMAT,2
METRIC
; #@! TA.AperFunction,Plated,PTH,ViaDrill
T1C0.300
; #@! TA.AperFunction,Plated,PTH,ComponentDrill
T2C0.750
; #@! TA.AperFunction,Plated,PTH,ComponentDrill
T3C0.800
; #@! TA.AperFunction,Plated,PTH,ComponentDrill
T4C1.000
; #@! TA.AperFunction,Plated,PTH,ComponentDrill
T5C1.016
; #@! TA.AperFunction,Plated,PTH,ComponentDrill
T6C1.100
; #@! TA.AperFunction,Plated,PTH,ComponentDrill
T7C2.200
%
G90
G05
T1
X124.0Y-90.0
X147.5Y-96.0
X150.0Y-93.5
X163.5Y-72.5
X165.5Y-72.5
X167.5Y-46.5
X168.1Y-69.9
X174.0Y-77.0
X174.2Y-71.7
X174.5Y-73.5
X193.0Y-60.5
X193.0Y-75.0
X193.6Y-87.9
X196.1Y-71.2
X196.1Y-85.4
X199.0Y-60.5
X206.7Y-127.5
X207.0Y-50.5
X207.0Y-52.5
X209.6Y-124.5
X215.0Y-58.5
X221.0Y-104.5
X222.615Y-114.615
X223.5Y-99.5
X226.95Y-113.65
T2
X99.9Y-59.83
X99.9Y-61.83
X99.95Y-74.58
X99.95Y-76.58
X158.5Y-45.95
X160.5Y-45.95
X162.5Y-45.95
X164.5Y-45.95
X188.0Y-45.95
X190.0Y-45.95
X192.0Y-45.95
X202.0Y-45.95
X204.0Y-45.95
X206.0Y-45.95
X206.11Y-136.05
X208.0Y-45.95
X208.11Y-136.05
X210.11Y-136.05
X212.11Y-136.05
X218.0Y-45.95
X220.0Y-45.95
X222.0Y-45.95
X227.05Y-54.0
X227.05Y-56.0
X227.05Y-58.0
T3
X188.5Y-56.5
X191.0Y-56.5
X200.042Y-126.85
X200.11Y-106.64
X200.11Y-119.34
X202.542Y-126.85
X202.65Y-106.64
X202.65Y-119.34
X205.19Y-106.64
X205.19Y-119.34
X207.73Y-106.64
X207.73Y-119.34
X210.27Y-106.64
X210.27Y-119.34
X212.81Y-106.64
X212.81Y-119.34
X215.35Y-106.64
X215.35Y-119.34
X215.475Y-126.85
X217.89Y-106.64
X217.89Y-119.34
X217.975Y-126.85
T4
X157.75Y-68.5
X160.29Y-68.5
X162.83Y-68.5
X165.37Y-68.5
T5
X133.37Y-72.5
X133.37Y-75.04
X133.37Y-77.58
X133.37Y-82.66
X133.37Y-85.2
X133.37Y-87.74
X133.37Y-90.28
X133.37Y-92.82
X133.37Y-95.36
X133.37Y-97.9
X133.37Y-100.44
X133.37Y-105.52
X133.37Y-108.06
X133.37Y-110.6
X133.37Y-113.14
X133.37Y-115.68
X133.37Y-118.22
X181.63Y-73.516
X181.63Y-76.056
X181.63Y-78.596
X181.63Y-81.136
X181.63Y-83.676
X181.63Y-86.216
X181.63Y-88.756
X181.63Y-91.296
X181.63Y-93.836
X181.63Y-96.376
X181.63Y-100.44
X181.63Y-102.98
X181.63Y-105.52
X181.63Y-108.06
X181.63Y-110.6
X181.63Y-113.14
X181.63Y-115.68
X181.63Y-118.22
T6
X112.5Y-56.42
X112.5Y-66.58
X112.5Y-70.5
X112.5Y-80.66
X121.0Y-57.79
X121.0Y-60.33
X121.0Y-62.87
X121.0Y-72.79
X121.0Y-75.33
X121.0Y-77.87
T7
X95.45Y-41.5
X95.45Y-140.5
X231.5Y-41.5
X231.5Y-140.5
T4
G00X156.75Y-129.0
M15
G01X154.25Y-129.0
M16
G05
G00X156.5Y-135.0
M15
G01X154.5Y-135.0
M16
G05
G00X160.2Y-131.0
M15
G01X160.2Y-133.0
M16
G05
M30
